M48
; DRILL file {KiCad 7.0.1} date Fri Apr 14 15:46:59 2023
; FORMAT={-:-/ absolute / metric / decimal}
; #@! TF.CreationDate,2023-04-14T15:46:59-04:00
; #@! TF.GenerationSoftware,Kicad,Pcbnew,7.0.1
; #@! TF.FileFunction,Plated,1,2,PTH
FMAT,2
METRIC
; #@! TA.AperFunction,Plated,PTH,ViaDrill
T1C0.400
; #@! TA.AperFunction,Plated,PTH,ComponentDrill
T2C0.800
; #@! TA.AperFunction,Plated,PTH,ComponentDrill
T3C0.900
; #@! TA.AperFunction,Plated,PTH,ComponentDrill
T4C1.000
; #@! TA.AperFunction,Plated,PTH,ComponentDrill
T5C1.020
; #@! TA.AperFunction,Plated,PTH,ComponentDrill
T6C1.100
; #@! TA.AperFunction,Plated,PTH,ComponentDrill
T7C1.397
%
G90
G05
T1
X104.797Y-65.474
X107.315Y-64.77
X110.49Y-63.5
X113.213Y-51.974
X115.57Y-59.055
X115.57Y-60.325
X118.293Y-51.974
X118.745Y-59.055
X121.285Y-62.865
X121.92Y-52.705
X126.365Y-52.705
T2
X43.815Y-71.12
X43.815Y-81.28
X44.45Y-86.36
X44.45Y-96.52
X46.99Y-62.865
X47.625Y-81.28
X48.145Y-68.58
X48.145Y-76.2
X48.26Y-86.36
X48.26Y-96.52
X48.26Y-106.68
X48.26Y-116.84
X50.685Y-68.58
X50.685Y-76.2
X52.07Y-106.68
X52.07Y-116.84
X53.225Y-68.58
X53.225Y-76.2
X55.765Y-68.58
X55.765Y-76.2
X57.15Y-62.865
X57.15Y-106.68
X57.15Y-116.84
X57.785Y-56.535
X57.785Y-59.035
X57.785Y-81.28
X59.055Y-74.315
X59.055Y-76.815
X61.595Y-83.185
X63.5Y-56.535
X63.5Y-59.035
X63.5Y-68.58
X63.5Y-76.2
X64.135Y-62.865
X66.04Y-68.58
X66.04Y-76.2
X67.31Y-93.98
X67.31Y-104.14
X67.31Y-109.22
X67.31Y-119.38
X68.58Y-68.58
X68.58Y-76.2
X68.62Y-80.01
X71.12Y-68.58
X71.12Y-76.2
X71.12Y-80.01
X71.12Y-93.98
X71.12Y-104.14
X71.12Y-109.22
X71.12Y-119.38
X71.755Y-83.185
X74.295Y-62.865
X79.375Y-61.595
X86.36Y-107.95
X86.36Y-111.76
X86.36Y-115.57
X86.36Y-119.38
X89.535Y-61.595
X96.52Y-107.95
X96.52Y-111.76
X96.52Y-115.57
X96.52Y-119.38
X113.03Y-63.5
X113.03Y-66.04
X115.53Y-63.5
X115.53Y-66.04
X115.57Y-109.22
X115.57Y-119.38
X119.38Y-109.22
X119.38Y-119.38
X123.19Y-58.395
X123.19Y-60.895
X123.19Y-109.22
X123.19Y-119.38
X128.27Y-49.53
X128.27Y-59.69
X132.08Y-49.53
X132.08Y-59.69
T3
X43.18Y-106.68
X43.18Y-109.22
X43.18Y-116.84
X43.18Y-119.38
X46.99Y-58.42
X54.61Y-58.42
X62.23Y-91.44
X62.23Y-93.98
X62.23Y-97.79
X62.23Y-100.33
X62.23Y-104.14
X62.23Y-106.68
X62.23Y-110.49
X62.23Y-113.03
X62.23Y-116.84
X62.23Y-119.38
X66.675Y-58.42
X74.295Y-58.42
X80.01Y-97.79
X80.01Y-100.33
X80.01Y-104.14
X80.01Y-106.68
X80.01Y-110.49
X80.01Y-113.03
X80.01Y-116.84
X80.01Y-119.38
X109.22Y-116.84
X109.22Y-119.38
X129.54Y-106.68
X129.54Y-109.22
X129.54Y-116.84
X129.54Y-119.38
T4
X39.37Y-83.835
X39.37Y-86.375
X39.37Y-88.915
X39.37Y-96.52
X39.37Y-99.06
X39.37Y-101.6
X113.015Y-45.015
X115.555Y-45.015
X118.095Y-45.015
T5
X85.09Y-71.12
X85.09Y-88.9
X85.32Y-77.47
X85.32Y-80.01
X85.32Y-82.55
X87.63Y-71.12
X87.63Y-88.9
X90.17Y-71.12
X90.17Y-88.9
X92.71Y-71.12
X92.71Y-88.9
X95.25Y-71.12
X95.25Y-88.9
X97.79Y-71.12
X97.79Y-88.9
X100.33Y-71.12
X100.33Y-88.9
X102.87Y-71.12
X102.87Y-88.9
X105.41Y-71.12
X105.41Y-88.9
X107.95Y-71.12
X107.95Y-88.9
X110.49Y-71.12
X110.49Y-88.9
X113.03Y-71.12
X113.03Y-88.9
X115.57Y-71.12
X115.57Y-88.9
X118.11Y-71.12
X118.11Y-88.9
X120.65Y-71.12
X120.65Y-88.9
X123.19Y-71.12
X123.19Y-88.9
X125.73Y-71.12
X125.73Y-88.9
X128.27Y-71.12
X128.27Y-88.9
X130.81Y-71.12
X130.81Y-88.9
X133.35Y-71.12
X133.35Y-88.9
T6
X39.93Y-126.02
X39.93Y-130.52
X46.43Y-126.02
X46.43Y-130.52
X61.52Y-126.02
X61.52Y-130.52
X68.02Y-126.02
X68.02Y-130.52
X79.3Y-126.02
X79.3Y-130.52
X85.8Y-126.02
X85.8Y-130.52
X105.97Y-126.02
X105.97Y-130.52
X112.47Y-126.02
X112.47Y-130.52
X126.29Y-126.02
X126.29Y-130.52
X132.79Y-126.02
X132.79Y-130.52
T7
X39.492Y-47.447
X41.994Y-49.949
X46.99Y-47.45
X51.986Y-49.949
X54.488Y-47.447
X59.812Y-47.447
X62.314Y-49.949
X67.31Y-47.45
X72.306Y-49.949
X74.808Y-47.447
X80.132Y-47.447
X82.634Y-49.949
X87.63Y-47.45
X92.626Y-49.949
X95.128Y-47.447
T0
M30
