G04 #@! TF.GenerationSoftware,KiCad,Pcbnew,7.0.1*
G04 #@! TF.CreationDate,2023-07-01T12:51:21-04:00*
G04 #@! TF.ProjectId,ArpeggiatorV1.1,41727065-6767-4696-9174-6f7256312e31,rev?*
G04 #@! TF.SameCoordinates,Original*
G04 #@! TF.FileFunction,Soldermask,Bot*
G04 #@! TF.FilePolarity,Negative*
%FSLAX46Y46*%
G04 Gerber Fmt 4.6, Leading zero omitted, Abs format (unit mm)*
G04 Created by KiCad (PCBNEW 7.0.1) date 2023-07-01 12:51:21*
%MOMM*%
%LPD*%
G01*
G04 APERTURE LIST*
%ADD10C,1.600000*%
%ADD11O,1.600000X1.600000*%
%ADD12R,1.800000X1.800000*%
%ADD13C,1.800000*%
%ADD14C,2.000000*%
%ADD15R,1.700000X1.700000*%
%ADD16O,1.700000X1.700000*%
%ADD17R,1.600000X1.600000*%
%ADD18C,4.000000*%
%ADD19O,1.800000X1.800000*%
%ADD20R,2.400000X1.600000*%
%ADD21O,2.400000X1.600000*%
%ADD22C,2.499360*%
%ADD23O,1.500000X1.500000*%
%ADD24R,1.700000X3.500000*%
%ADD25R,3.500000X1.700000*%
G04 APERTURE END LIST*
D10*
X73152000Y-57404000D03*
D11*
X62992000Y-57404000D03*
D10*
X48768000Y-116840000D03*
D11*
X48768000Y-106680000D03*
D12*
X43180000Y-106680000D03*
D13*
X43180000Y-109220000D03*
X62230000Y-119380000D03*
D12*
X62230000Y-116840000D03*
X80010000Y-104140000D03*
D13*
X80010000Y-106680000D03*
D14*
X112470000Y-130520000D03*
X105970000Y-130520000D03*
X112470000Y-126020000D03*
X105970000Y-126020000D03*
D10*
X86360000Y-108204000D03*
D11*
X96520000Y-108204000D03*
D15*
X39370000Y-96520000D03*
D16*
X39370000Y-99060000D03*
X39370000Y-101600000D03*
D10*
X47244000Y-96520000D03*
D11*
X47244000Y-86360000D03*
D17*
X113030000Y-66040000D03*
D10*
X115530000Y-66040000D03*
X59436000Y-56662000D03*
X59436000Y-59162000D03*
D15*
X39370000Y-83835000D03*
D16*
X39370000Y-86375000D03*
X39370000Y-88915000D03*
D14*
X46430000Y-130520000D03*
X39930000Y-130520000D03*
X46430000Y-126020000D03*
X39930000Y-126020000D03*
D18*
X129540000Y-40640000D03*
D10*
X71120000Y-119380000D03*
D11*
X71120000Y-109220000D03*
D10*
X50566000Y-90424000D03*
X53066000Y-90424000D03*
X67564000Y-104140000D03*
D11*
X67564000Y-93980000D03*
D12*
X62230000Y-97790000D03*
D13*
X62230000Y-100330000D03*
D10*
X128270000Y-49530000D03*
D11*
X128270000Y-59690000D03*
D12*
X80010000Y-97790000D03*
D13*
X80010000Y-100330000D03*
D18*
X92710000Y-128270000D03*
D14*
X85800000Y-130520000D03*
X79300000Y-130520000D03*
X85800000Y-126020000D03*
X79300000Y-126020000D03*
X68020000Y-130520000D03*
X61520000Y-130520000D03*
X68020000Y-126020000D03*
X61520000Y-126020000D03*
D10*
X119380000Y-119380000D03*
D11*
X119380000Y-109220000D03*
D12*
X62230000Y-91440000D03*
D13*
X62230000Y-93980000D03*
X62230000Y-113030000D03*
D12*
X62230000Y-110490000D03*
D10*
X50566000Y-93980000D03*
X53066000Y-93980000D03*
D18*
X53340000Y-128270000D03*
D14*
X132790000Y-130520000D03*
X126290000Y-130520000D03*
X132790000Y-126020000D03*
X126290000Y-126020000D03*
D10*
X43688000Y-86360000D03*
D11*
X43688000Y-96520000D03*
D18*
X119380000Y-128270000D03*
D12*
X62230000Y-73660000D03*
D19*
X69850000Y-73660000D03*
D10*
X115316000Y-119380000D03*
D11*
X115316000Y-109220000D03*
D20*
X62215000Y-64023000D03*
D21*
X62215000Y-66563000D03*
X62215000Y-69103000D03*
X69835000Y-69103000D03*
X69835000Y-66563000D03*
X69835000Y-64023000D03*
D12*
X129540000Y-116840000D03*
D13*
X129540000Y-119380000D03*
D18*
X102870000Y-40640000D03*
D12*
X43180000Y-116840000D03*
D13*
X43180000Y-119380000D03*
D10*
X86360000Y-115316000D03*
D11*
X96520000Y-115316000D03*
D12*
X80010000Y-116840000D03*
D13*
X80010000Y-119380000D03*
D10*
X67564000Y-119380000D03*
D11*
X67564000Y-109220000D03*
D10*
X52324000Y-116840000D03*
D11*
X52324000Y-106680000D03*
D10*
X41656000Y-57404000D03*
X39156000Y-57404000D03*
D20*
X47991000Y-64023000D03*
D21*
X47991000Y-66563000D03*
X47991000Y-69103000D03*
X55611000Y-69103000D03*
X55611000Y-66563000D03*
X55611000Y-64023000D03*
D10*
X55880000Y-78740000D03*
D11*
X45720000Y-78740000D03*
D12*
X80010000Y-110490000D03*
D13*
X80010000Y-113030000D03*
D12*
X129540000Y-106680000D03*
D13*
X129540000Y-109220000D03*
D10*
X86360000Y-119380000D03*
D11*
X96520000Y-119380000D03*
D12*
X109220000Y-116840000D03*
D13*
X109220000Y-119380000D03*
D10*
X71120000Y-104140000D03*
D11*
X71120000Y-93980000D03*
D18*
X40640000Y-64770000D03*
D10*
X86360000Y-111760000D03*
D11*
X96520000Y-111760000D03*
D10*
X60960000Y-78740000D03*
D11*
X71120000Y-78740000D03*
D12*
X48006000Y-73660000D03*
D19*
X55626000Y-73660000D03*
D10*
X132080000Y-49530000D03*
D11*
X132080000Y-59690000D03*
D10*
X57404000Y-106680000D03*
D11*
X57404000Y-116840000D03*
D12*
X62230000Y-104140000D03*
D13*
X62230000Y-106680000D03*
D10*
X55372000Y-57404000D03*
D11*
X45212000Y-57404000D03*
D10*
X123444000Y-119380000D03*
D11*
X123444000Y-109220000D03*
D15*
X118095000Y-45015000D03*
D16*
X115555000Y-45015000D03*
X113015000Y-45015000D03*
D22*
X41988740Y-37452300D03*
X51991260Y-37452300D03*
X54488080Y-47447200D03*
X46990000Y-47449740D03*
X39491920Y-47447200D03*
X51986180Y-49949100D03*
X41993820Y-49949100D03*
X62308740Y-37452300D03*
X72311260Y-37452300D03*
X74808080Y-47447200D03*
X67310000Y-47449740D03*
X59811920Y-47447200D03*
X72306180Y-49949100D03*
X62313820Y-49949100D03*
D19*
X133220000Y-82735000D03*
D23*
X130190000Y-82435000D03*
X130190000Y-77585000D03*
D19*
X133220000Y-77285000D03*
D16*
X133350000Y-88900000D03*
D24*
X133350000Y-89800000D03*
D16*
X130810000Y-88900000D03*
D24*
X130810000Y-89800000D03*
D15*
X128270000Y-88900000D03*
D24*
X128270000Y-89800000D03*
D16*
X125730000Y-88900000D03*
D24*
X125730000Y-89800000D03*
D16*
X123190000Y-88900000D03*
D24*
X123190000Y-89800000D03*
D16*
X120650000Y-88900000D03*
D24*
X120650000Y-89800000D03*
D16*
X118110000Y-88900000D03*
D24*
X118110000Y-89800000D03*
D15*
X115570000Y-88900000D03*
D24*
X115570000Y-89800000D03*
D16*
X113030000Y-88900000D03*
D24*
X113030000Y-89800000D03*
D16*
X110490000Y-88900000D03*
D24*
X110490000Y-89800000D03*
D16*
X107950000Y-88900000D03*
D24*
X107950000Y-89800000D03*
D16*
X105410000Y-88900000D03*
D24*
X105410000Y-89800000D03*
D15*
X102870000Y-88900000D03*
D24*
X102870000Y-89800000D03*
D16*
X100330000Y-88900000D03*
D24*
X100330000Y-89800000D03*
D16*
X97790000Y-88900000D03*
D24*
X97790000Y-89800000D03*
D16*
X95250000Y-88900000D03*
D24*
X95250000Y-89800000D03*
D16*
X92710000Y-88900000D03*
D24*
X92710000Y-89800000D03*
D15*
X90170000Y-88900000D03*
D24*
X90170000Y-89800000D03*
D16*
X87630000Y-88900000D03*
D24*
X87630000Y-89800000D03*
D16*
X85090000Y-88900000D03*
D24*
X85090000Y-89800000D03*
D16*
X85090000Y-71120000D03*
D24*
X85090000Y-70220000D03*
D16*
X87630000Y-71120000D03*
D24*
X87630000Y-70220000D03*
D15*
X90170000Y-71120000D03*
D24*
X90170000Y-70220000D03*
D16*
X92710000Y-71120000D03*
D24*
X92710000Y-70220000D03*
D16*
X95250000Y-71120000D03*
D24*
X95250000Y-70220000D03*
D16*
X97790000Y-71120000D03*
D24*
X97790000Y-70220000D03*
D16*
X100330000Y-71120000D03*
D24*
X100330000Y-70220000D03*
D15*
X102870000Y-71120000D03*
D24*
X102870000Y-70220000D03*
D16*
X105410000Y-71120000D03*
D24*
X105410000Y-70220000D03*
D16*
X107950000Y-71120000D03*
D24*
X107950000Y-70220000D03*
D16*
X110490000Y-71120000D03*
D24*
X110490000Y-70220000D03*
D16*
X113030000Y-71120000D03*
D24*
X113030000Y-70220000D03*
D15*
X115570000Y-71120000D03*
D24*
X115570000Y-70220000D03*
D16*
X118110000Y-71120000D03*
D24*
X118110000Y-70220000D03*
D16*
X120650000Y-71120000D03*
D24*
X120650000Y-70220000D03*
D16*
X123190000Y-71120000D03*
D24*
X123190000Y-70220000D03*
D16*
X125730000Y-71120000D03*
D24*
X125730000Y-70220000D03*
D15*
X128270000Y-71120000D03*
D24*
X128270000Y-70220000D03*
D16*
X130810000Y-71120000D03*
D24*
X130810000Y-70220000D03*
D16*
X133350000Y-71120000D03*
D24*
X133350000Y-70220000D03*
D16*
X85320000Y-82550000D03*
D25*
X84420000Y-82550000D03*
D15*
X85320000Y-80010000D03*
D25*
X84420000Y-80010000D03*
D16*
X85320000Y-77470000D03*
D25*
X84420000Y-77470000D03*
D22*
X82628740Y-37452300D03*
X92631260Y-37452300D03*
X95128080Y-47447200D03*
X87630000Y-47449740D03*
X80131920Y-47447200D03*
X92626180Y-49949100D03*
X82633820Y-49949100D03*
M02*
