M48
INCH,TZ
T1C0.0157
T2C0.0315
T3C0.0354
T4C0.0394
T5C0.0402
T6C0.0433
T7C0.0550
%
G90
G05
T1
X41289Y-25869
X42250Y-25500
X43515Y-25069
X44572Y-20462
X44800Y-23800
X44800Y-24400
X45200Y-23000
X45620Y-23085
X46572Y-20462
X46886Y-23085
X47000Y-25000
X47158Y-22801
X47800Y-22400
T2
X15416Y-22600
X16400Y-22600
X17200Y-34000
X17200Y-38000
X17800Y-22600
X18000Y-31000
X18600Y-34000
X18600Y-38000
X18894Y-25206
X18894Y-26206
X18894Y-27206
X19200Y-42000
X19200Y-46000
X19908Y-35600
X19908Y-37000
X20600Y-42000
X20600Y-46000
X20892Y-35600
X20892Y-37000
X21800Y-22600
X21894Y-25206
X21894Y-26206
X21894Y-27206
X22000Y-31000
X22600Y-42000
X22600Y-46000
X23400Y-22308
X23400Y-23292
X24000Y-31000
X24494Y-25206
X24494Y-26206
X24494Y-27206
X24800Y-22600
X26600Y-37000
X26600Y-41000
X26600Y-43000
X26600Y-47000
X27494Y-25206
X27494Y-26206
X27494Y-27206
X28000Y-31000
X28000Y-37000
X28000Y-41000
X28000Y-43000
X28000Y-47000
X28800Y-22600
X34000Y-42600
X34000Y-44000
X34000Y-45400
X34000Y-47000
X38000Y-42600
X38000Y-44000
X38000Y-45400
X38000Y-47000
X44500Y-26000
X45400Y-43000
X45400Y-47000
X45484Y-26000
X47000Y-43000
X47000Y-47000
X48600Y-43000
X48600Y-47000
X50500Y-19500
X50500Y-23500
X52000Y-19500
X52000Y-23500
T3
X17000Y-42000
X17000Y-43000
X17000Y-46000
X17000Y-47000
X18900Y-29000
X21900Y-29000
X24500Y-29000
X24500Y-36000
X24500Y-37000
X24500Y-38500
X24500Y-39500
X24500Y-41000
X24500Y-42000
X24500Y-43500
X24500Y-44500
X24500Y-46000
X24500Y-47000
X27500Y-29000
X31500Y-38500
X31500Y-39500
X31500Y-41000
X31500Y-42000
X31500Y-43500
X31500Y-44500
X31500Y-46000
X31500Y-47000
X43000Y-46000
X43000Y-47000
X51000Y-42000
X51000Y-43000
X51000Y-46000
X51000Y-47000
T4
X15500Y-33006
X15500Y-34006
X15500Y-35006
X15500Y-38000
X15500Y-39000
X15500Y-40000
X44494Y-17722
X45494Y-17722
X46494Y-17722
T5
X33500Y-28000
X33500Y-35000
X33591Y-30500
X33591Y-31500
X33591Y-32500
X34500Y-28000
X34500Y-35000
X35500Y-28000
X35500Y-35000
X36500Y-28000
X36500Y-35000
X37500Y-28000
X37500Y-35000
X38500Y-28000
X38500Y-35000
X39500Y-28000
X39500Y-35000
X40500Y-28000
X40500Y-35000
X41500Y-28000
X41500Y-35000
X42500Y-28000
X42500Y-35000
X43500Y-28000
X43500Y-35000
X44500Y-28000
X44500Y-35000
X45500Y-28000
X45500Y-35000
X46500Y-28000
X46500Y-35000
X47500Y-28000
X47500Y-35000
X48500Y-28000
X48500Y-35000
X49500Y-28000
X49500Y-35000
X50500Y-28000
X50500Y-35000
X51500Y-28000
X51500Y-35000
X52500Y-28000
X52500Y-35000
T6
X15720Y-49614
X15720Y-51386
X18280Y-49614
X18280Y-51386
X24220Y-49614
X24220Y-51386
X26780Y-49614
X26780Y-51386
X31220Y-49614
X31220Y-51386
X33780Y-49614
X33780Y-51386
X41720Y-49614
X41720Y-51386
X44280Y-49614
X44280Y-51386
X49720Y-49614
X49720Y-51386
X52280Y-49614
X52280Y-51386
T7
X15548Y-18680
X16533Y-19665
X18500Y-18681
X20467Y-19665
X21452Y-18680
X23548Y-18680
X24533Y-19665
X26500Y-18681
X28467Y-19665
X29452Y-18680
X31548Y-18680
X32533Y-19665
X34500Y-18681
X36467Y-19665
X37452Y-18680
T0
M30
