%TF.GenerationSoftware,KiCad,Pcbnew,7.0.1*%
%TF.CreationDate,2023-04-14T15:47:10-04:00*%
%TF.ProjectId,ArpeggiatorV1.1,41727065-6767-4696-9174-6f7256312e31,rev?*%
%TF.SameCoordinates,Original*%
%TF.FileFunction,Drillmap*%
%TF.FilePolarity,Positive*%
%FSLAX45Y45*%
G04 Gerber Fmt 4.5, Leading zero omitted, Abs format (unit mm)*
G04 Created by KiCad (PCBNEW 7.0.1) date 2023-04-14 15:47:10*
%MOMM*%
%LPD*%
G01*
G04 APERTURE LIST*
%ADD10C,0.100000*%
%ADD11C,0.200000*%
%ADD12C,0.139700*%
%ADD13C,0.150000*%
%ADD14C,0.180000*%
%ADD15C,0.400000*%
G04 APERTURE END LIST*
D10*
X3556000Y-3556000D02*
X13556000Y-3556000D01*
X13556000Y-13556000D01*
X3556000Y-13556000D01*
X3556000Y-3556000D01*
D11*
D12*
X4129024Y-3675380D02*
X4268724Y-3815080D01*
X4268724Y-3675380D02*
X4129024Y-3815080D01*
X5129276Y-3675380D02*
X5268976Y-3815080D01*
X5268976Y-3675380D02*
X5129276Y-3815080D01*
X6161024Y-3675380D02*
X6300724Y-3815080D01*
X6300724Y-3675380D02*
X6161024Y-3815080D01*
X7161276Y-3675380D02*
X7300976Y-3815080D01*
X7300976Y-3675380D02*
X7161276Y-3815080D01*
X8193024Y-3675380D02*
X8332724Y-3815080D01*
X8332724Y-3675380D02*
X8193024Y-3815080D01*
X9193276Y-3675380D02*
X9332976Y-3815080D01*
X9332976Y-3675380D02*
X9193276Y-3815080D01*
D13*
X13094000Y-7758500D02*
G75*
G03*
X13094000Y-7758500I-75000J0D01*
G01*
X13094000Y-8243500D02*
G75*
G03*
X13094000Y-8243500I-75000J0D01*
G01*
D14*
X13322000Y-7638500D02*
X13322000Y-7818500D01*
X13232000Y-7728500D02*
X13412000Y-7728500D01*
X13322000Y-8183500D02*
X13322000Y-8363500D01*
X13232000Y-8273500D02*
X13412000Y-8273500D01*
D15*
X4205423Y-6618423D02*
X4205423Y-6335577D01*
X3922577Y-6335577D01*
X3922577Y-6618423D01*
X4205423Y-6618423D01*
X5475423Y-12968423D02*
X5475423Y-12685577D01*
X5192577Y-12685577D01*
X5192577Y-12968423D01*
X5475423Y-12968423D01*
X9412423Y-12968423D02*
X9412423Y-12685577D01*
X9129577Y-12685577D01*
X9129577Y-12968423D01*
X9412423Y-12968423D01*
X10428423Y-4205423D02*
X10428423Y-3922577D01*
X10145577Y-3922577D01*
X10145577Y-4205423D01*
X10428423Y-4205423D01*
X12079423Y-12968423D02*
X12079423Y-12685577D01*
X11796577Y-12685577D01*
X11796577Y-12968423D01*
X12079423Y-12968423D01*
X13095423Y-4205423D02*
X13095423Y-3922577D01*
X12812577Y-3922577D01*
X12812577Y-4205423D01*
X13095423Y-4205423D01*
D11*
X3798619Y-13873524D02*
X3798619Y-13673524D01*
X3798619Y-13673524D02*
X3846238Y-13673524D01*
X3846238Y-13673524D02*
X3874809Y-13683048D01*
X3874809Y-13683048D02*
X3893857Y-13702095D01*
X3893857Y-13702095D02*
X3903381Y-13721143D01*
X3903381Y-13721143D02*
X3912905Y-13759238D01*
X3912905Y-13759238D02*
X3912905Y-13787809D01*
X3912905Y-13787809D02*
X3903381Y-13825905D01*
X3903381Y-13825905D02*
X3893857Y-13844952D01*
X3893857Y-13844952D02*
X3874809Y-13864000D01*
X3874809Y-13864000D02*
X3846238Y-13873524D01*
X3846238Y-13873524D02*
X3798619Y-13873524D01*
X3998619Y-13873524D02*
X3998619Y-13740190D01*
X3998619Y-13778286D02*
X4008143Y-13759238D01*
X4008143Y-13759238D02*
X4017667Y-13749714D01*
X4017667Y-13749714D02*
X4036714Y-13740190D01*
X4036714Y-13740190D02*
X4055762Y-13740190D01*
X4122428Y-13873524D02*
X4122428Y-13740190D01*
X4122428Y-13673524D02*
X4112905Y-13683048D01*
X4112905Y-13683048D02*
X4122428Y-13692571D01*
X4122428Y-13692571D02*
X4131952Y-13683048D01*
X4131952Y-13683048D02*
X4122428Y-13673524D01*
X4122428Y-13673524D02*
X4122428Y-13692571D01*
X4246238Y-13873524D02*
X4227190Y-13864000D01*
X4227190Y-13864000D02*
X4217667Y-13844952D01*
X4217667Y-13844952D02*
X4217667Y-13673524D01*
X4351000Y-13873524D02*
X4331952Y-13864000D01*
X4331952Y-13864000D02*
X4322429Y-13844952D01*
X4322429Y-13844952D02*
X4322429Y-13673524D01*
X4579571Y-13873524D02*
X4579571Y-13673524D01*
X4579571Y-13673524D02*
X4646238Y-13816381D01*
X4646238Y-13816381D02*
X4712905Y-13673524D01*
X4712905Y-13673524D02*
X4712905Y-13873524D01*
X4893857Y-13873524D02*
X4893857Y-13768762D01*
X4893857Y-13768762D02*
X4884333Y-13749714D01*
X4884333Y-13749714D02*
X4865286Y-13740190D01*
X4865286Y-13740190D02*
X4827190Y-13740190D01*
X4827190Y-13740190D02*
X4808143Y-13749714D01*
X4893857Y-13864000D02*
X4874810Y-13873524D01*
X4874810Y-13873524D02*
X4827190Y-13873524D01*
X4827190Y-13873524D02*
X4808143Y-13864000D01*
X4808143Y-13864000D02*
X4798619Y-13844952D01*
X4798619Y-13844952D02*
X4798619Y-13825905D01*
X4798619Y-13825905D02*
X4808143Y-13806857D01*
X4808143Y-13806857D02*
X4827190Y-13797333D01*
X4827190Y-13797333D02*
X4874810Y-13797333D01*
X4874810Y-13797333D02*
X4893857Y-13787809D01*
X4989095Y-13740190D02*
X4989095Y-13940190D01*
X4989095Y-13749714D02*
X5008143Y-13740190D01*
X5008143Y-13740190D02*
X5046238Y-13740190D01*
X5046238Y-13740190D02*
X5065286Y-13749714D01*
X5065286Y-13749714D02*
X5074810Y-13759238D01*
X5074810Y-13759238D02*
X5084333Y-13778286D01*
X5084333Y-13778286D02*
X5084333Y-13835428D01*
X5084333Y-13835428D02*
X5074810Y-13854476D01*
X5074810Y-13854476D02*
X5065286Y-13864000D01*
X5065286Y-13864000D02*
X5046238Y-13873524D01*
X5046238Y-13873524D02*
X5008143Y-13873524D01*
X5008143Y-13873524D02*
X4989095Y-13864000D01*
X5170048Y-13854476D02*
X5179571Y-13864000D01*
X5179571Y-13864000D02*
X5170048Y-13873524D01*
X5170048Y-13873524D02*
X5160524Y-13864000D01*
X5160524Y-13864000D02*
X5170048Y-13854476D01*
X5170048Y-13854476D02*
X5170048Y-13873524D01*
X5170048Y-13749714D02*
X5179571Y-13759238D01*
X5179571Y-13759238D02*
X5170048Y-13768762D01*
X5170048Y-13768762D02*
X5160524Y-13759238D01*
X5160524Y-13759238D02*
X5170048Y-13749714D01*
X5170048Y-13749714D02*
X5170048Y-13768762D01*
D12*
X3411300Y-14131150D02*
X3551000Y-14270850D01*
X3551000Y-14131150D02*
X3411300Y-14270850D01*
D11*
X3903381Y-14293524D02*
X3789095Y-14293524D01*
X3846238Y-14293524D02*
X3846238Y-14093524D01*
X3846238Y-14093524D02*
X3827190Y-14122095D01*
X3827190Y-14122095D02*
X3808143Y-14141143D01*
X3808143Y-14141143D02*
X3789095Y-14150667D01*
X3989095Y-14274476D02*
X3998619Y-14284000D01*
X3998619Y-14284000D02*
X3989095Y-14293524D01*
X3989095Y-14293524D02*
X3979571Y-14284000D01*
X3979571Y-14284000D02*
X3989095Y-14274476D01*
X3989095Y-14274476D02*
X3989095Y-14293524D01*
X4065286Y-14093524D02*
X4189095Y-14093524D01*
X4189095Y-14093524D02*
X4122428Y-14169714D01*
X4122428Y-14169714D02*
X4151000Y-14169714D01*
X4151000Y-14169714D02*
X4170048Y-14179238D01*
X4170048Y-14179238D02*
X4179571Y-14188762D01*
X4179571Y-14188762D02*
X4189095Y-14207809D01*
X4189095Y-14207809D02*
X4189095Y-14255428D01*
X4189095Y-14255428D02*
X4179571Y-14274476D01*
X4179571Y-14274476D02*
X4170048Y-14284000D01*
X4170048Y-14284000D02*
X4151000Y-14293524D01*
X4151000Y-14293524D02*
X4093857Y-14293524D01*
X4093857Y-14293524D02*
X4074809Y-14284000D01*
X4074809Y-14284000D02*
X4065286Y-14274476D01*
X4284333Y-14293524D02*
X4322429Y-14293524D01*
X4322429Y-14293524D02*
X4341476Y-14284000D01*
X4341476Y-14284000D02*
X4351000Y-14274476D01*
X4351000Y-14274476D02*
X4370048Y-14245905D01*
X4370048Y-14245905D02*
X4379571Y-14207809D01*
X4379571Y-14207809D02*
X4379571Y-14131619D01*
X4379571Y-14131619D02*
X4370048Y-14112571D01*
X4370048Y-14112571D02*
X4360524Y-14103048D01*
X4360524Y-14103048D02*
X4341476Y-14093524D01*
X4341476Y-14093524D02*
X4303381Y-14093524D01*
X4303381Y-14093524D02*
X4284333Y-14103048D01*
X4284333Y-14103048D02*
X4274810Y-14112571D01*
X4274810Y-14112571D02*
X4265286Y-14131619D01*
X4265286Y-14131619D02*
X4265286Y-14179238D01*
X4265286Y-14179238D02*
X4274810Y-14198286D01*
X4274810Y-14198286D02*
X4284333Y-14207809D01*
X4284333Y-14207809D02*
X4303381Y-14217333D01*
X4303381Y-14217333D02*
X4341476Y-14217333D01*
X4341476Y-14217333D02*
X4360524Y-14207809D01*
X4360524Y-14207809D02*
X4370048Y-14198286D01*
X4370048Y-14198286D02*
X4379571Y-14179238D01*
X4446238Y-14093524D02*
X4579571Y-14093524D01*
X4579571Y-14093524D02*
X4493857Y-14293524D01*
X4655762Y-14293524D02*
X4655762Y-14160190D01*
X4655762Y-14179238D02*
X4665286Y-14169714D01*
X4665286Y-14169714D02*
X4684333Y-14160190D01*
X4684333Y-14160190D02*
X4712905Y-14160190D01*
X4712905Y-14160190D02*
X4731952Y-14169714D01*
X4731952Y-14169714D02*
X4741476Y-14188762D01*
X4741476Y-14188762D02*
X4741476Y-14293524D01*
X4741476Y-14188762D02*
X4751000Y-14169714D01*
X4751000Y-14169714D02*
X4770048Y-14160190D01*
X4770048Y-14160190D02*
X4798619Y-14160190D01*
X4798619Y-14160190D02*
X4817667Y-14169714D01*
X4817667Y-14169714D02*
X4827191Y-14188762D01*
X4827191Y-14188762D02*
X4827191Y-14293524D01*
X4922429Y-14293524D02*
X4922429Y-14160190D01*
X4922429Y-14179238D02*
X4931952Y-14169714D01*
X4931952Y-14169714D02*
X4951000Y-14160190D01*
X4951000Y-14160190D02*
X4979572Y-14160190D01*
X4979572Y-14160190D02*
X4998619Y-14169714D01*
X4998619Y-14169714D02*
X5008143Y-14188762D01*
X5008143Y-14188762D02*
X5008143Y-14293524D01*
X5008143Y-14188762D02*
X5017667Y-14169714D01*
X5017667Y-14169714D02*
X5036714Y-14160190D01*
X5036714Y-14160190D02*
X5065286Y-14160190D01*
X5065286Y-14160190D02*
X5084333Y-14169714D01*
X5084333Y-14169714D02*
X5093857Y-14188762D01*
X5093857Y-14188762D02*
X5093857Y-14293524D01*
X5484333Y-14084000D02*
X5312905Y-14341143D01*
X5741476Y-14093524D02*
X5760524Y-14093524D01*
X5760524Y-14093524D02*
X5779572Y-14103048D01*
X5779572Y-14103048D02*
X5789095Y-14112571D01*
X5789095Y-14112571D02*
X5798619Y-14131619D01*
X5798619Y-14131619D02*
X5808143Y-14169714D01*
X5808143Y-14169714D02*
X5808143Y-14217333D01*
X5808143Y-14217333D02*
X5798619Y-14255428D01*
X5798619Y-14255428D02*
X5789095Y-14274476D01*
X5789095Y-14274476D02*
X5779572Y-14284000D01*
X5779572Y-14284000D02*
X5760524Y-14293524D01*
X5760524Y-14293524D02*
X5741476Y-14293524D01*
X5741476Y-14293524D02*
X5722429Y-14284000D01*
X5722429Y-14284000D02*
X5712905Y-14274476D01*
X5712905Y-14274476D02*
X5703381Y-14255428D01*
X5703381Y-14255428D02*
X5693857Y-14217333D01*
X5693857Y-14217333D02*
X5693857Y-14169714D01*
X5693857Y-14169714D02*
X5703381Y-14131619D01*
X5703381Y-14131619D02*
X5712905Y-14112571D01*
X5712905Y-14112571D02*
X5722429Y-14103048D01*
X5722429Y-14103048D02*
X5741476Y-14093524D01*
X5893857Y-14274476D02*
X5903381Y-14284000D01*
X5903381Y-14284000D02*
X5893857Y-14293524D01*
X5893857Y-14293524D02*
X5884333Y-14284000D01*
X5884333Y-14284000D02*
X5893857Y-14274476D01*
X5893857Y-14274476D02*
X5893857Y-14293524D01*
X6027191Y-14093524D02*
X6046238Y-14093524D01*
X6046238Y-14093524D02*
X6065286Y-14103048D01*
X6065286Y-14103048D02*
X6074810Y-14112571D01*
X6074810Y-14112571D02*
X6084333Y-14131619D01*
X6084333Y-14131619D02*
X6093857Y-14169714D01*
X6093857Y-14169714D02*
X6093857Y-14217333D01*
X6093857Y-14217333D02*
X6084333Y-14255428D01*
X6084333Y-14255428D02*
X6074810Y-14274476D01*
X6074810Y-14274476D02*
X6065286Y-14284000D01*
X6065286Y-14284000D02*
X6046238Y-14293524D01*
X6046238Y-14293524D02*
X6027191Y-14293524D01*
X6027191Y-14293524D02*
X6008143Y-14284000D01*
X6008143Y-14284000D02*
X5998619Y-14274476D01*
X5998619Y-14274476D02*
X5989095Y-14255428D01*
X5989095Y-14255428D02*
X5979572Y-14217333D01*
X5979572Y-14217333D02*
X5979572Y-14169714D01*
X5979572Y-14169714D02*
X5989095Y-14131619D01*
X5989095Y-14131619D02*
X5998619Y-14112571D01*
X5998619Y-14112571D02*
X6008143Y-14103048D01*
X6008143Y-14103048D02*
X6027191Y-14093524D01*
X6274810Y-14093524D02*
X6179572Y-14093524D01*
X6179572Y-14093524D02*
X6170048Y-14188762D01*
X6170048Y-14188762D02*
X6179572Y-14179238D01*
X6179572Y-14179238D02*
X6198619Y-14169714D01*
X6198619Y-14169714D02*
X6246238Y-14169714D01*
X6246238Y-14169714D02*
X6265286Y-14179238D01*
X6265286Y-14179238D02*
X6274810Y-14188762D01*
X6274810Y-14188762D02*
X6284333Y-14207809D01*
X6284333Y-14207809D02*
X6284333Y-14255428D01*
X6284333Y-14255428D02*
X6274810Y-14274476D01*
X6274810Y-14274476D02*
X6265286Y-14284000D01*
X6265286Y-14284000D02*
X6246238Y-14293524D01*
X6246238Y-14293524D02*
X6198619Y-14293524D01*
X6198619Y-14293524D02*
X6179572Y-14284000D01*
X6179572Y-14284000D02*
X6170048Y-14274476D01*
X6465286Y-14093524D02*
X6370048Y-14093524D01*
X6370048Y-14093524D02*
X6360524Y-14188762D01*
X6360524Y-14188762D02*
X6370048Y-14179238D01*
X6370048Y-14179238D02*
X6389095Y-14169714D01*
X6389095Y-14169714D02*
X6436714Y-14169714D01*
X6436714Y-14169714D02*
X6455762Y-14179238D01*
X6455762Y-14179238D02*
X6465286Y-14188762D01*
X6465286Y-14188762D02*
X6474810Y-14207809D01*
X6474810Y-14207809D02*
X6474810Y-14255428D01*
X6474810Y-14255428D02*
X6465286Y-14274476D01*
X6465286Y-14274476D02*
X6455762Y-14284000D01*
X6455762Y-14284000D02*
X6436714Y-14293524D01*
X6436714Y-14293524D02*
X6389095Y-14293524D01*
X6389095Y-14293524D02*
X6370048Y-14284000D01*
X6370048Y-14284000D02*
X6360524Y-14274476D01*
X6598619Y-14093524D02*
X6617667Y-14093524D01*
X6617667Y-14093524D02*
X6636714Y-14103048D01*
X6636714Y-14103048D02*
X6646238Y-14112571D01*
X6646238Y-14112571D02*
X6655762Y-14131619D01*
X6655762Y-14131619D02*
X6665286Y-14169714D01*
X6665286Y-14169714D02*
X6665286Y-14217333D01*
X6665286Y-14217333D02*
X6655762Y-14255428D01*
X6655762Y-14255428D02*
X6646238Y-14274476D01*
X6646238Y-14274476D02*
X6636714Y-14284000D01*
X6636714Y-14284000D02*
X6617667Y-14293524D01*
X6617667Y-14293524D02*
X6598619Y-14293524D01*
X6598619Y-14293524D02*
X6579572Y-14284000D01*
X6579572Y-14284000D02*
X6570048Y-14274476D01*
X6570048Y-14274476D02*
X6560524Y-14255428D01*
X6560524Y-14255428D02*
X6551000Y-14217333D01*
X6551000Y-14217333D02*
X6551000Y-14169714D01*
X6551000Y-14169714D02*
X6560524Y-14131619D01*
X6560524Y-14131619D02*
X6570048Y-14112571D01*
X6570048Y-14112571D02*
X6579572Y-14103048D01*
X6579572Y-14103048D02*
X6598619Y-14093524D01*
X6741476Y-14093524D02*
X6741476Y-14131619D01*
X6817667Y-14093524D02*
X6817667Y-14131619D01*
X7112905Y-14369714D02*
X7103381Y-14360190D01*
X7103381Y-14360190D02*
X7084334Y-14331619D01*
X7084334Y-14331619D02*
X7074810Y-14312571D01*
X7074810Y-14312571D02*
X7065286Y-14284000D01*
X7065286Y-14284000D02*
X7055762Y-14236381D01*
X7055762Y-14236381D02*
X7055762Y-14198286D01*
X7055762Y-14198286D02*
X7065286Y-14150667D01*
X7065286Y-14150667D02*
X7074810Y-14122095D01*
X7074810Y-14122095D02*
X7084334Y-14103048D01*
X7084334Y-14103048D02*
X7103381Y-14074476D01*
X7103381Y-14074476D02*
X7112905Y-14064952D01*
X7274810Y-14093524D02*
X7236714Y-14093524D01*
X7236714Y-14093524D02*
X7217667Y-14103048D01*
X7217667Y-14103048D02*
X7208143Y-14112571D01*
X7208143Y-14112571D02*
X7189095Y-14141143D01*
X7189095Y-14141143D02*
X7179572Y-14179238D01*
X7179572Y-14179238D02*
X7179572Y-14255428D01*
X7179572Y-14255428D02*
X7189095Y-14274476D01*
X7189095Y-14274476D02*
X7198619Y-14284000D01*
X7198619Y-14284000D02*
X7217667Y-14293524D01*
X7217667Y-14293524D02*
X7255762Y-14293524D01*
X7255762Y-14293524D02*
X7274810Y-14284000D01*
X7274810Y-14284000D02*
X7284334Y-14274476D01*
X7284334Y-14274476D02*
X7293857Y-14255428D01*
X7293857Y-14255428D02*
X7293857Y-14207809D01*
X7293857Y-14207809D02*
X7284334Y-14188762D01*
X7284334Y-14188762D02*
X7274810Y-14179238D01*
X7274810Y-14179238D02*
X7255762Y-14169714D01*
X7255762Y-14169714D02*
X7217667Y-14169714D01*
X7217667Y-14169714D02*
X7198619Y-14179238D01*
X7198619Y-14179238D02*
X7189095Y-14188762D01*
X7189095Y-14188762D02*
X7179572Y-14207809D01*
X7531953Y-14293524D02*
X7531953Y-14093524D01*
X7617667Y-14293524D02*
X7617667Y-14188762D01*
X7617667Y-14188762D02*
X7608143Y-14169714D01*
X7608143Y-14169714D02*
X7589096Y-14160190D01*
X7589096Y-14160190D02*
X7560524Y-14160190D01*
X7560524Y-14160190D02*
X7541476Y-14169714D01*
X7541476Y-14169714D02*
X7531953Y-14179238D01*
X7741476Y-14293524D02*
X7722429Y-14284000D01*
X7722429Y-14284000D02*
X7712905Y-14274476D01*
X7712905Y-14274476D02*
X7703381Y-14255428D01*
X7703381Y-14255428D02*
X7703381Y-14198286D01*
X7703381Y-14198286D02*
X7712905Y-14179238D01*
X7712905Y-14179238D02*
X7722429Y-14169714D01*
X7722429Y-14169714D02*
X7741476Y-14160190D01*
X7741476Y-14160190D02*
X7770048Y-14160190D01*
X7770048Y-14160190D02*
X7789096Y-14169714D01*
X7789096Y-14169714D02*
X7798619Y-14179238D01*
X7798619Y-14179238D02*
X7808143Y-14198286D01*
X7808143Y-14198286D02*
X7808143Y-14255428D01*
X7808143Y-14255428D02*
X7798619Y-14274476D01*
X7798619Y-14274476D02*
X7789096Y-14284000D01*
X7789096Y-14284000D02*
X7770048Y-14293524D01*
X7770048Y-14293524D02*
X7741476Y-14293524D01*
X7922429Y-14293524D02*
X7903381Y-14284000D01*
X7903381Y-14284000D02*
X7893857Y-14264952D01*
X7893857Y-14264952D02*
X7893857Y-14093524D01*
X8074810Y-14284000D02*
X8055762Y-14293524D01*
X8055762Y-14293524D02*
X8017667Y-14293524D01*
X8017667Y-14293524D02*
X7998619Y-14284000D01*
X7998619Y-14284000D02*
X7989096Y-14264952D01*
X7989096Y-14264952D02*
X7989096Y-14188762D01*
X7989096Y-14188762D02*
X7998619Y-14169714D01*
X7998619Y-14169714D02*
X8017667Y-14160190D01*
X8017667Y-14160190D02*
X8055762Y-14160190D01*
X8055762Y-14160190D02*
X8074810Y-14169714D01*
X8074810Y-14169714D02*
X8084334Y-14188762D01*
X8084334Y-14188762D02*
X8084334Y-14207809D01*
X8084334Y-14207809D02*
X7989096Y-14226857D01*
X8160524Y-14284000D02*
X8179572Y-14293524D01*
X8179572Y-14293524D02*
X8217667Y-14293524D01*
X8217667Y-14293524D02*
X8236715Y-14284000D01*
X8236715Y-14284000D02*
X8246238Y-14264952D01*
X8246238Y-14264952D02*
X8246238Y-14255428D01*
X8246238Y-14255428D02*
X8236715Y-14236381D01*
X8236715Y-14236381D02*
X8217667Y-14226857D01*
X8217667Y-14226857D02*
X8189096Y-14226857D01*
X8189096Y-14226857D02*
X8170048Y-14217333D01*
X8170048Y-14217333D02*
X8160524Y-14198286D01*
X8160524Y-14198286D02*
X8160524Y-14188762D01*
X8160524Y-14188762D02*
X8170048Y-14169714D01*
X8170048Y-14169714D02*
X8189096Y-14160190D01*
X8189096Y-14160190D02*
X8217667Y-14160190D01*
X8217667Y-14160190D02*
X8236715Y-14169714D01*
X8312905Y-14369714D02*
X8322429Y-14360190D01*
X8322429Y-14360190D02*
X8341477Y-14331619D01*
X8341477Y-14331619D02*
X8351000Y-14312571D01*
X8351000Y-14312571D02*
X8360524Y-14284000D01*
X8360524Y-14284000D02*
X8370048Y-14236381D01*
X8370048Y-14236381D02*
X8370048Y-14198286D01*
X8370048Y-14198286D02*
X8360524Y-14150667D01*
X8360524Y-14150667D02*
X8351000Y-14122095D01*
X8351000Y-14122095D02*
X8341477Y-14103048D01*
X8341477Y-14103048D02*
X8322429Y-14074476D01*
X8322429Y-14074476D02*
X8312905Y-14064952D01*
X8674810Y-14369714D02*
X8665286Y-14360190D01*
X8665286Y-14360190D02*
X8646239Y-14331619D01*
X8646239Y-14331619D02*
X8636715Y-14312571D01*
X8636715Y-14312571D02*
X8627191Y-14284000D01*
X8627191Y-14284000D02*
X8617667Y-14236381D01*
X8617667Y-14236381D02*
X8617667Y-14198286D01*
X8617667Y-14198286D02*
X8627191Y-14150667D01*
X8627191Y-14150667D02*
X8636715Y-14122095D01*
X8636715Y-14122095D02*
X8646239Y-14103048D01*
X8646239Y-14103048D02*
X8665286Y-14074476D01*
X8665286Y-14074476D02*
X8674810Y-14064952D01*
X8751000Y-14160190D02*
X8751000Y-14293524D01*
X8751000Y-14179238D02*
X8760524Y-14169714D01*
X8760524Y-14169714D02*
X8779572Y-14160190D01*
X8779572Y-14160190D02*
X8808143Y-14160190D01*
X8808143Y-14160190D02*
X8827191Y-14169714D01*
X8827191Y-14169714D02*
X8836715Y-14188762D01*
X8836715Y-14188762D02*
X8836715Y-14293524D01*
X8960524Y-14293524D02*
X8941477Y-14284000D01*
X8941477Y-14284000D02*
X8931953Y-14274476D01*
X8931953Y-14274476D02*
X8922429Y-14255428D01*
X8922429Y-14255428D02*
X8922429Y-14198286D01*
X8922429Y-14198286D02*
X8931953Y-14179238D01*
X8931953Y-14179238D02*
X8941477Y-14169714D01*
X8941477Y-14169714D02*
X8960524Y-14160190D01*
X8960524Y-14160190D02*
X8989096Y-14160190D01*
X8989096Y-14160190D02*
X9008143Y-14169714D01*
X9008143Y-14169714D02*
X9017667Y-14179238D01*
X9017667Y-14179238D02*
X9027191Y-14198286D01*
X9027191Y-14198286D02*
X9027191Y-14255428D01*
X9027191Y-14255428D02*
X9017667Y-14274476D01*
X9017667Y-14274476D02*
X9008143Y-14284000D01*
X9008143Y-14284000D02*
X8989096Y-14293524D01*
X8989096Y-14293524D02*
X8960524Y-14293524D01*
X9084334Y-14160190D02*
X9160524Y-14160190D01*
X9112905Y-14093524D02*
X9112905Y-14264952D01*
X9112905Y-14264952D02*
X9122429Y-14284000D01*
X9122429Y-14284000D02*
X9141477Y-14293524D01*
X9141477Y-14293524D02*
X9160524Y-14293524D01*
X9379572Y-14160190D02*
X9379572Y-14360190D01*
X9379572Y-14169714D02*
X9398620Y-14160190D01*
X9398620Y-14160190D02*
X9436715Y-14160190D01*
X9436715Y-14160190D02*
X9455762Y-14169714D01*
X9455762Y-14169714D02*
X9465286Y-14179238D01*
X9465286Y-14179238D02*
X9474810Y-14198286D01*
X9474810Y-14198286D02*
X9474810Y-14255428D01*
X9474810Y-14255428D02*
X9465286Y-14274476D01*
X9465286Y-14274476D02*
X9455762Y-14284000D01*
X9455762Y-14284000D02*
X9436715Y-14293524D01*
X9436715Y-14293524D02*
X9398620Y-14293524D01*
X9398620Y-14293524D02*
X9379572Y-14284000D01*
X9589096Y-14293524D02*
X9570048Y-14284000D01*
X9570048Y-14284000D02*
X9560524Y-14264952D01*
X9560524Y-14264952D02*
X9560524Y-14093524D01*
X9751001Y-14293524D02*
X9751001Y-14188762D01*
X9751001Y-14188762D02*
X9741477Y-14169714D01*
X9741477Y-14169714D02*
X9722429Y-14160190D01*
X9722429Y-14160190D02*
X9684334Y-14160190D01*
X9684334Y-14160190D02*
X9665286Y-14169714D01*
X9751001Y-14284000D02*
X9731953Y-14293524D01*
X9731953Y-14293524D02*
X9684334Y-14293524D01*
X9684334Y-14293524D02*
X9665286Y-14284000D01*
X9665286Y-14284000D02*
X9655762Y-14264952D01*
X9655762Y-14264952D02*
X9655762Y-14245905D01*
X9655762Y-14245905D02*
X9665286Y-14226857D01*
X9665286Y-14226857D02*
X9684334Y-14217333D01*
X9684334Y-14217333D02*
X9731953Y-14217333D01*
X9731953Y-14217333D02*
X9751001Y-14207809D01*
X9817667Y-14160190D02*
X9893858Y-14160190D01*
X9846239Y-14093524D02*
X9846239Y-14264952D01*
X9846239Y-14264952D02*
X9855762Y-14284000D01*
X9855762Y-14284000D02*
X9874810Y-14293524D01*
X9874810Y-14293524D02*
X9893858Y-14293524D01*
X10036715Y-14284000D02*
X10017667Y-14293524D01*
X10017667Y-14293524D02*
X9979572Y-14293524D01*
X9979572Y-14293524D02*
X9960524Y-14284000D01*
X9960524Y-14284000D02*
X9951001Y-14264952D01*
X9951001Y-14264952D02*
X9951001Y-14188762D01*
X9951001Y-14188762D02*
X9960524Y-14169714D01*
X9960524Y-14169714D02*
X9979572Y-14160190D01*
X9979572Y-14160190D02*
X10017667Y-14160190D01*
X10017667Y-14160190D02*
X10036715Y-14169714D01*
X10036715Y-14169714D02*
X10046239Y-14188762D01*
X10046239Y-14188762D02*
X10046239Y-14207809D01*
X10046239Y-14207809D02*
X9951001Y-14226857D01*
X10217667Y-14293524D02*
X10217667Y-14093524D01*
X10217667Y-14284000D02*
X10198620Y-14293524D01*
X10198620Y-14293524D02*
X10160524Y-14293524D01*
X10160524Y-14293524D02*
X10141477Y-14284000D01*
X10141477Y-14284000D02*
X10131953Y-14274476D01*
X10131953Y-14274476D02*
X10122429Y-14255428D01*
X10122429Y-14255428D02*
X10122429Y-14198286D01*
X10122429Y-14198286D02*
X10131953Y-14179238D01*
X10131953Y-14179238D02*
X10141477Y-14169714D01*
X10141477Y-14169714D02*
X10160524Y-14160190D01*
X10160524Y-14160190D02*
X10198620Y-14160190D01*
X10198620Y-14160190D02*
X10217667Y-14169714D01*
X10293858Y-14369714D02*
X10303382Y-14360190D01*
X10303382Y-14360190D02*
X10322429Y-14331619D01*
X10322429Y-14331619D02*
X10331953Y-14312571D01*
X10331953Y-14312571D02*
X10341477Y-14284000D01*
X10341477Y-14284000D02*
X10351001Y-14236381D01*
X10351001Y-14236381D02*
X10351001Y-14198286D01*
X10351001Y-14198286D02*
X10341477Y-14150667D01*
X10341477Y-14150667D02*
X10331953Y-14122095D01*
X10331953Y-14122095D02*
X10322429Y-14103048D01*
X10322429Y-14103048D02*
X10303382Y-14074476D01*
X10303382Y-14074476D02*
X10293858Y-14064952D01*
D13*
X3551000Y-14465000D02*
G75*
G03*
X3551000Y-14465000I-75000J0D01*
G01*
D11*
X3903381Y-14557524D02*
X3789095Y-14557524D01*
X3846238Y-14557524D02*
X3846238Y-14357524D01*
X3846238Y-14357524D02*
X3827190Y-14386095D01*
X3827190Y-14386095D02*
X3808143Y-14405143D01*
X3808143Y-14405143D02*
X3789095Y-14414667D01*
X3989095Y-14538476D02*
X3998619Y-14548000D01*
X3998619Y-14548000D02*
X3989095Y-14557524D01*
X3989095Y-14557524D02*
X3979571Y-14548000D01*
X3979571Y-14548000D02*
X3989095Y-14538476D01*
X3989095Y-14538476D02*
X3989095Y-14557524D01*
X4179571Y-14357524D02*
X4084333Y-14357524D01*
X4084333Y-14357524D02*
X4074809Y-14452762D01*
X4074809Y-14452762D02*
X4084333Y-14443238D01*
X4084333Y-14443238D02*
X4103381Y-14433714D01*
X4103381Y-14433714D02*
X4151000Y-14433714D01*
X4151000Y-14433714D02*
X4170048Y-14443238D01*
X4170048Y-14443238D02*
X4179571Y-14452762D01*
X4179571Y-14452762D02*
X4189095Y-14471809D01*
X4189095Y-14471809D02*
X4189095Y-14519428D01*
X4189095Y-14519428D02*
X4179571Y-14538476D01*
X4179571Y-14538476D02*
X4170048Y-14548000D01*
X4170048Y-14548000D02*
X4151000Y-14557524D01*
X4151000Y-14557524D02*
X4103381Y-14557524D01*
X4103381Y-14557524D02*
X4084333Y-14548000D01*
X4084333Y-14548000D02*
X4074809Y-14538476D01*
X4312905Y-14357524D02*
X4331952Y-14357524D01*
X4331952Y-14357524D02*
X4351000Y-14367048D01*
X4351000Y-14367048D02*
X4360524Y-14376571D01*
X4360524Y-14376571D02*
X4370048Y-14395619D01*
X4370048Y-14395619D02*
X4379571Y-14433714D01*
X4379571Y-14433714D02*
X4379571Y-14481333D01*
X4379571Y-14481333D02*
X4370048Y-14519428D01*
X4370048Y-14519428D02*
X4360524Y-14538476D01*
X4360524Y-14538476D02*
X4351000Y-14548000D01*
X4351000Y-14548000D02*
X4331952Y-14557524D01*
X4331952Y-14557524D02*
X4312905Y-14557524D01*
X4312905Y-14557524D02*
X4293857Y-14548000D01*
X4293857Y-14548000D02*
X4284333Y-14538476D01*
X4284333Y-14538476D02*
X4274810Y-14519428D01*
X4274810Y-14519428D02*
X4265286Y-14481333D01*
X4265286Y-14481333D02*
X4265286Y-14433714D01*
X4265286Y-14433714D02*
X4274810Y-14395619D01*
X4274810Y-14395619D02*
X4284333Y-14376571D01*
X4284333Y-14376571D02*
X4293857Y-14367048D01*
X4293857Y-14367048D02*
X4312905Y-14357524D01*
X4503381Y-14357524D02*
X4522429Y-14357524D01*
X4522429Y-14357524D02*
X4541476Y-14367048D01*
X4541476Y-14367048D02*
X4551000Y-14376571D01*
X4551000Y-14376571D02*
X4560524Y-14395619D01*
X4560524Y-14395619D02*
X4570048Y-14433714D01*
X4570048Y-14433714D02*
X4570048Y-14481333D01*
X4570048Y-14481333D02*
X4560524Y-14519428D01*
X4560524Y-14519428D02*
X4551000Y-14538476D01*
X4551000Y-14538476D02*
X4541476Y-14548000D01*
X4541476Y-14548000D02*
X4522429Y-14557524D01*
X4522429Y-14557524D02*
X4503381Y-14557524D01*
X4503381Y-14557524D02*
X4484333Y-14548000D01*
X4484333Y-14548000D02*
X4474810Y-14538476D01*
X4474810Y-14538476D02*
X4465286Y-14519428D01*
X4465286Y-14519428D02*
X4455762Y-14481333D01*
X4455762Y-14481333D02*
X4455762Y-14433714D01*
X4455762Y-14433714D02*
X4465286Y-14395619D01*
X4465286Y-14395619D02*
X4474810Y-14376571D01*
X4474810Y-14376571D02*
X4484333Y-14367048D01*
X4484333Y-14367048D02*
X4503381Y-14357524D01*
X4655762Y-14557524D02*
X4655762Y-14424190D01*
X4655762Y-14443238D02*
X4665286Y-14433714D01*
X4665286Y-14433714D02*
X4684333Y-14424190D01*
X4684333Y-14424190D02*
X4712905Y-14424190D01*
X4712905Y-14424190D02*
X4731952Y-14433714D01*
X4731952Y-14433714D02*
X4741476Y-14452762D01*
X4741476Y-14452762D02*
X4741476Y-14557524D01*
X4741476Y-14452762D02*
X4751000Y-14433714D01*
X4751000Y-14433714D02*
X4770048Y-14424190D01*
X4770048Y-14424190D02*
X4798619Y-14424190D01*
X4798619Y-14424190D02*
X4817667Y-14433714D01*
X4817667Y-14433714D02*
X4827191Y-14452762D01*
X4827191Y-14452762D02*
X4827191Y-14557524D01*
X4922429Y-14557524D02*
X4922429Y-14424190D01*
X4922429Y-14443238D02*
X4931952Y-14433714D01*
X4931952Y-14433714D02*
X4951000Y-14424190D01*
X4951000Y-14424190D02*
X4979572Y-14424190D01*
X4979572Y-14424190D02*
X4998619Y-14433714D01*
X4998619Y-14433714D02*
X5008143Y-14452762D01*
X5008143Y-14452762D02*
X5008143Y-14557524D01*
X5008143Y-14452762D02*
X5017667Y-14433714D01*
X5017667Y-14433714D02*
X5036714Y-14424190D01*
X5036714Y-14424190D02*
X5065286Y-14424190D01*
X5065286Y-14424190D02*
X5084333Y-14433714D01*
X5084333Y-14433714D02*
X5093857Y-14452762D01*
X5093857Y-14452762D02*
X5093857Y-14557524D01*
X5484333Y-14348000D02*
X5312905Y-14605143D01*
X5741476Y-14357524D02*
X5760524Y-14357524D01*
X5760524Y-14357524D02*
X5779572Y-14367048D01*
X5779572Y-14367048D02*
X5789095Y-14376571D01*
X5789095Y-14376571D02*
X5798619Y-14395619D01*
X5798619Y-14395619D02*
X5808143Y-14433714D01*
X5808143Y-14433714D02*
X5808143Y-14481333D01*
X5808143Y-14481333D02*
X5798619Y-14519428D01*
X5798619Y-14519428D02*
X5789095Y-14538476D01*
X5789095Y-14538476D02*
X5779572Y-14548000D01*
X5779572Y-14548000D02*
X5760524Y-14557524D01*
X5760524Y-14557524D02*
X5741476Y-14557524D01*
X5741476Y-14557524D02*
X5722429Y-14548000D01*
X5722429Y-14548000D02*
X5712905Y-14538476D01*
X5712905Y-14538476D02*
X5703381Y-14519428D01*
X5703381Y-14519428D02*
X5693857Y-14481333D01*
X5693857Y-14481333D02*
X5693857Y-14433714D01*
X5693857Y-14433714D02*
X5703381Y-14395619D01*
X5703381Y-14395619D02*
X5712905Y-14376571D01*
X5712905Y-14376571D02*
X5722429Y-14367048D01*
X5722429Y-14367048D02*
X5741476Y-14357524D01*
X5893857Y-14538476D02*
X5903381Y-14548000D01*
X5903381Y-14548000D02*
X5893857Y-14557524D01*
X5893857Y-14557524D02*
X5884333Y-14548000D01*
X5884333Y-14548000D02*
X5893857Y-14538476D01*
X5893857Y-14538476D02*
X5893857Y-14557524D01*
X6027191Y-14357524D02*
X6046238Y-14357524D01*
X6046238Y-14357524D02*
X6065286Y-14367048D01*
X6065286Y-14367048D02*
X6074810Y-14376571D01*
X6074810Y-14376571D02*
X6084333Y-14395619D01*
X6084333Y-14395619D02*
X6093857Y-14433714D01*
X6093857Y-14433714D02*
X6093857Y-14481333D01*
X6093857Y-14481333D02*
X6084333Y-14519428D01*
X6084333Y-14519428D02*
X6074810Y-14538476D01*
X6074810Y-14538476D02*
X6065286Y-14548000D01*
X6065286Y-14548000D02*
X6046238Y-14557524D01*
X6046238Y-14557524D02*
X6027191Y-14557524D01*
X6027191Y-14557524D02*
X6008143Y-14548000D01*
X6008143Y-14548000D02*
X5998619Y-14538476D01*
X5998619Y-14538476D02*
X5989095Y-14519428D01*
X5989095Y-14519428D02*
X5979572Y-14481333D01*
X5979572Y-14481333D02*
X5979572Y-14433714D01*
X5979572Y-14433714D02*
X5989095Y-14395619D01*
X5989095Y-14395619D02*
X5998619Y-14376571D01*
X5998619Y-14376571D02*
X6008143Y-14367048D01*
X6008143Y-14367048D02*
X6027191Y-14357524D01*
X6274810Y-14357524D02*
X6179572Y-14357524D01*
X6179572Y-14357524D02*
X6170048Y-14452762D01*
X6170048Y-14452762D02*
X6179572Y-14443238D01*
X6179572Y-14443238D02*
X6198619Y-14433714D01*
X6198619Y-14433714D02*
X6246238Y-14433714D01*
X6246238Y-14433714D02*
X6265286Y-14443238D01*
X6265286Y-14443238D02*
X6274810Y-14452762D01*
X6274810Y-14452762D02*
X6284333Y-14471809D01*
X6284333Y-14471809D02*
X6284333Y-14519428D01*
X6284333Y-14519428D02*
X6274810Y-14538476D01*
X6274810Y-14538476D02*
X6265286Y-14548000D01*
X6265286Y-14548000D02*
X6246238Y-14557524D01*
X6246238Y-14557524D02*
X6198619Y-14557524D01*
X6198619Y-14557524D02*
X6179572Y-14548000D01*
X6179572Y-14548000D02*
X6170048Y-14538476D01*
X6379572Y-14557524D02*
X6417667Y-14557524D01*
X6417667Y-14557524D02*
X6436714Y-14548000D01*
X6436714Y-14548000D02*
X6446238Y-14538476D01*
X6446238Y-14538476D02*
X6465286Y-14509905D01*
X6465286Y-14509905D02*
X6474810Y-14471809D01*
X6474810Y-14471809D02*
X6474810Y-14395619D01*
X6474810Y-14395619D02*
X6465286Y-14376571D01*
X6465286Y-14376571D02*
X6455762Y-14367048D01*
X6455762Y-14367048D02*
X6436714Y-14357524D01*
X6436714Y-14357524D02*
X6398619Y-14357524D01*
X6398619Y-14357524D02*
X6379572Y-14367048D01*
X6379572Y-14367048D02*
X6370048Y-14376571D01*
X6370048Y-14376571D02*
X6360524Y-14395619D01*
X6360524Y-14395619D02*
X6360524Y-14443238D01*
X6360524Y-14443238D02*
X6370048Y-14462286D01*
X6370048Y-14462286D02*
X6379572Y-14471809D01*
X6379572Y-14471809D02*
X6398619Y-14481333D01*
X6398619Y-14481333D02*
X6436714Y-14481333D01*
X6436714Y-14481333D02*
X6455762Y-14471809D01*
X6455762Y-14471809D02*
X6465286Y-14462286D01*
X6465286Y-14462286D02*
X6474810Y-14443238D01*
X6665286Y-14557524D02*
X6551000Y-14557524D01*
X6608143Y-14557524D02*
X6608143Y-14357524D01*
X6608143Y-14357524D02*
X6589095Y-14386095D01*
X6589095Y-14386095D02*
X6570048Y-14405143D01*
X6570048Y-14405143D02*
X6551000Y-14414667D01*
X6741476Y-14357524D02*
X6741476Y-14395619D01*
X6817667Y-14357524D02*
X6817667Y-14395619D01*
X7112905Y-14633714D02*
X7103381Y-14624190D01*
X7103381Y-14624190D02*
X7084334Y-14595619D01*
X7084334Y-14595619D02*
X7074810Y-14576571D01*
X7074810Y-14576571D02*
X7065286Y-14548000D01*
X7065286Y-14548000D02*
X7055762Y-14500381D01*
X7055762Y-14500381D02*
X7055762Y-14462286D01*
X7055762Y-14462286D02*
X7065286Y-14414667D01*
X7065286Y-14414667D02*
X7074810Y-14386095D01*
X7074810Y-14386095D02*
X7084334Y-14367048D01*
X7084334Y-14367048D02*
X7103381Y-14338476D01*
X7103381Y-14338476D02*
X7112905Y-14328952D01*
X7179572Y-14376571D02*
X7189095Y-14367048D01*
X7189095Y-14367048D02*
X7208143Y-14357524D01*
X7208143Y-14357524D02*
X7255762Y-14357524D01*
X7255762Y-14357524D02*
X7274810Y-14367048D01*
X7274810Y-14367048D02*
X7284334Y-14376571D01*
X7284334Y-14376571D02*
X7293857Y-14395619D01*
X7293857Y-14395619D02*
X7293857Y-14414667D01*
X7293857Y-14414667D02*
X7284334Y-14443238D01*
X7284334Y-14443238D02*
X7170048Y-14557524D01*
X7170048Y-14557524D02*
X7293857Y-14557524D01*
X7531953Y-14557524D02*
X7531953Y-14357524D01*
X7617667Y-14557524D02*
X7617667Y-14452762D01*
X7617667Y-14452762D02*
X7608143Y-14433714D01*
X7608143Y-14433714D02*
X7589096Y-14424190D01*
X7589096Y-14424190D02*
X7560524Y-14424190D01*
X7560524Y-14424190D02*
X7541476Y-14433714D01*
X7541476Y-14433714D02*
X7531953Y-14443238D01*
X7741476Y-14557524D02*
X7722429Y-14548000D01*
X7722429Y-14548000D02*
X7712905Y-14538476D01*
X7712905Y-14538476D02*
X7703381Y-14519428D01*
X7703381Y-14519428D02*
X7703381Y-14462286D01*
X7703381Y-14462286D02*
X7712905Y-14443238D01*
X7712905Y-14443238D02*
X7722429Y-14433714D01*
X7722429Y-14433714D02*
X7741476Y-14424190D01*
X7741476Y-14424190D02*
X7770048Y-14424190D01*
X7770048Y-14424190D02*
X7789096Y-14433714D01*
X7789096Y-14433714D02*
X7798619Y-14443238D01*
X7798619Y-14443238D02*
X7808143Y-14462286D01*
X7808143Y-14462286D02*
X7808143Y-14519428D01*
X7808143Y-14519428D02*
X7798619Y-14538476D01*
X7798619Y-14538476D02*
X7789096Y-14548000D01*
X7789096Y-14548000D02*
X7770048Y-14557524D01*
X7770048Y-14557524D02*
X7741476Y-14557524D01*
X7922429Y-14557524D02*
X7903381Y-14548000D01*
X7903381Y-14548000D02*
X7893857Y-14528952D01*
X7893857Y-14528952D02*
X7893857Y-14357524D01*
X8074810Y-14548000D02*
X8055762Y-14557524D01*
X8055762Y-14557524D02*
X8017667Y-14557524D01*
X8017667Y-14557524D02*
X7998619Y-14548000D01*
X7998619Y-14548000D02*
X7989096Y-14528952D01*
X7989096Y-14528952D02*
X7989096Y-14452762D01*
X7989096Y-14452762D02*
X7998619Y-14433714D01*
X7998619Y-14433714D02*
X8017667Y-14424190D01*
X8017667Y-14424190D02*
X8055762Y-14424190D01*
X8055762Y-14424190D02*
X8074810Y-14433714D01*
X8074810Y-14433714D02*
X8084334Y-14452762D01*
X8084334Y-14452762D02*
X8084334Y-14471809D01*
X8084334Y-14471809D02*
X7989096Y-14490857D01*
X8160524Y-14548000D02*
X8179572Y-14557524D01*
X8179572Y-14557524D02*
X8217667Y-14557524D01*
X8217667Y-14557524D02*
X8236715Y-14548000D01*
X8236715Y-14548000D02*
X8246238Y-14528952D01*
X8246238Y-14528952D02*
X8246238Y-14519428D01*
X8246238Y-14519428D02*
X8236715Y-14500381D01*
X8236715Y-14500381D02*
X8217667Y-14490857D01*
X8217667Y-14490857D02*
X8189096Y-14490857D01*
X8189096Y-14490857D02*
X8170048Y-14481333D01*
X8170048Y-14481333D02*
X8160524Y-14462286D01*
X8160524Y-14462286D02*
X8160524Y-14452762D01*
X8160524Y-14452762D02*
X8170048Y-14433714D01*
X8170048Y-14433714D02*
X8189096Y-14424190D01*
X8189096Y-14424190D02*
X8217667Y-14424190D01*
X8217667Y-14424190D02*
X8236715Y-14433714D01*
X8312905Y-14633714D02*
X8322429Y-14624190D01*
X8322429Y-14624190D02*
X8341477Y-14595619D01*
X8341477Y-14595619D02*
X8351000Y-14576571D01*
X8351000Y-14576571D02*
X8360524Y-14548000D01*
X8360524Y-14548000D02*
X8370048Y-14500381D01*
X8370048Y-14500381D02*
X8370048Y-14462286D01*
X8370048Y-14462286D02*
X8360524Y-14414667D01*
X8360524Y-14414667D02*
X8351000Y-14386095D01*
X8351000Y-14386095D02*
X8341477Y-14367048D01*
X8341477Y-14367048D02*
X8322429Y-14338476D01*
X8322429Y-14338476D02*
X8312905Y-14328952D01*
X8674810Y-14633714D02*
X8665286Y-14624190D01*
X8665286Y-14624190D02*
X8646239Y-14595619D01*
X8646239Y-14595619D02*
X8636715Y-14576571D01*
X8636715Y-14576571D02*
X8627191Y-14548000D01*
X8627191Y-14548000D02*
X8617667Y-14500381D01*
X8617667Y-14500381D02*
X8617667Y-14462286D01*
X8617667Y-14462286D02*
X8627191Y-14414667D01*
X8627191Y-14414667D02*
X8636715Y-14386095D01*
X8636715Y-14386095D02*
X8646239Y-14367048D01*
X8646239Y-14367048D02*
X8665286Y-14338476D01*
X8665286Y-14338476D02*
X8674810Y-14328952D01*
X8751000Y-14424190D02*
X8751000Y-14557524D01*
X8751000Y-14443238D02*
X8760524Y-14433714D01*
X8760524Y-14433714D02*
X8779572Y-14424190D01*
X8779572Y-14424190D02*
X8808143Y-14424190D01*
X8808143Y-14424190D02*
X8827191Y-14433714D01*
X8827191Y-14433714D02*
X8836715Y-14452762D01*
X8836715Y-14452762D02*
X8836715Y-14557524D01*
X8960524Y-14557524D02*
X8941477Y-14548000D01*
X8941477Y-14548000D02*
X8931953Y-14538476D01*
X8931953Y-14538476D02*
X8922429Y-14519428D01*
X8922429Y-14519428D02*
X8922429Y-14462286D01*
X8922429Y-14462286D02*
X8931953Y-14443238D01*
X8931953Y-14443238D02*
X8941477Y-14433714D01*
X8941477Y-14433714D02*
X8960524Y-14424190D01*
X8960524Y-14424190D02*
X8989096Y-14424190D01*
X8989096Y-14424190D02*
X9008143Y-14433714D01*
X9008143Y-14433714D02*
X9017667Y-14443238D01*
X9017667Y-14443238D02*
X9027191Y-14462286D01*
X9027191Y-14462286D02*
X9027191Y-14519428D01*
X9027191Y-14519428D02*
X9017667Y-14538476D01*
X9017667Y-14538476D02*
X9008143Y-14548000D01*
X9008143Y-14548000D02*
X8989096Y-14557524D01*
X8989096Y-14557524D02*
X8960524Y-14557524D01*
X9084334Y-14424190D02*
X9160524Y-14424190D01*
X9112905Y-14357524D02*
X9112905Y-14528952D01*
X9112905Y-14528952D02*
X9122429Y-14548000D01*
X9122429Y-14548000D02*
X9141477Y-14557524D01*
X9141477Y-14557524D02*
X9160524Y-14557524D01*
X9379572Y-14424190D02*
X9379572Y-14624190D01*
X9379572Y-14433714D02*
X9398620Y-14424190D01*
X9398620Y-14424190D02*
X9436715Y-14424190D01*
X9436715Y-14424190D02*
X9455762Y-14433714D01*
X9455762Y-14433714D02*
X9465286Y-14443238D01*
X9465286Y-14443238D02*
X9474810Y-14462286D01*
X9474810Y-14462286D02*
X9474810Y-14519428D01*
X9474810Y-14519428D02*
X9465286Y-14538476D01*
X9465286Y-14538476D02*
X9455762Y-14548000D01*
X9455762Y-14548000D02*
X9436715Y-14557524D01*
X9436715Y-14557524D02*
X9398620Y-14557524D01*
X9398620Y-14557524D02*
X9379572Y-14548000D01*
X9589096Y-14557524D02*
X9570048Y-14548000D01*
X9570048Y-14548000D02*
X9560524Y-14528952D01*
X9560524Y-14528952D02*
X9560524Y-14357524D01*
X9751001Y-14557524D02*
X9751001Y-14452762D01*
X9751001Y-14452762D02*
X9741477Y-14433714D01*
X9741477Y-14433714D02*
X9722429Y-14424190D01*
X9722429Y-14424190D02*
X9684334Y-14424190D01*
X9684334Y-14424190D02*
X9665286Y-14433714D01*
X9751001Y-14548000D02*
X9731953Y-14557524D01*
X9731953Y-14557524D02*
X9684334Y-14557524D01*
X9684334Y-14557524D02*
X9665286Y-14548000D01*
X9665286Y-14548000D02*
X9655762Y-14528952D01*
X9655762Y-14528952D02*
X9655762Y-14509905D01*
X9655762Y-14509905D02*
X9665286Y-14490857D01*
X9665286Y-14490857D02*
X9684334Y-14481333D01*
X9684334Y-14481333D02*
X9731953Y-14481333D01*
X9731953Y-14481333D02*
X9751001Y-14471809D01*
X9817667Y-14424190D02*
X9893858Y-14424190D01*
X9846239Y-14357524D02*
X9846239Y-14528952D01*
X9846239Y-14528952D02*
X9855762Y-14548000D01*
X9855762Y-14548000D02*
X9874810Y-14557524D01*
X9874810Y-14557524D02*
X9893858Y-14557524D01*
X10036715Y-14548000D02*
X10017667Y-14557524D01*
X10017667Y-14557524D02*
X9979572Y-14557524D01*
X9979572Y-14557524D02*
X9960524Y-14548000D01*
X9960524Y-14548000D02*
X9951001Y-14528952D01*
X9951001Y-14528952D02*
X9951001Y-14452762D01*
X9951001Y-14452762D02*
X9960524Y-14433714D01*
X9960524Y-14433714D02*
X9979572Y-14424190D01*
X9979572Y-14424190D02*
X10017667Y-14424190D01*
X10017667Y-14424190D02*
X10036715Y-14433714D01*
X10036715Y-14433714D02*
X10046239Y-14452762D01*
X10046239Y-14452762D02*
X10046239Y-14471809D01*
X10046239Y-14471809D02*
X9951001Y-14490857D01*
X10217667Y-14557524D02*
X10217667Y-14357524D01*
X10217667Y-14548000D02*
X10198620Y-14557524D01*
X10198620Y-14557524D02*
X10160524Y-14557524D01*
X10160524Y-14557524D02*
X10141477Y-14548000D01*
X10141477Y-14548000D02*
X10131953Y-14538476D01*
X10131953Y-14538476D02*
X10122429Y-14519428D01*
X10122429Y-14519428D02*
X10122429Y-14462286D01*
X10122429Y-14462286D02*
X10131953Y-14443238D01*
X10131953Y-14443238D02*
X10141477Y-14433714D01*
X10141477Y-14433714D02*
X10160524Y-14424190D01*
X10160524Y-14424190D02*
X10198620Y-14424190D01*
X10198620Y-14424190D02*
X10217667Y-14433714D01*
X10293858Y-14633714D02*
X10303382Y-14624190D01*
X10303382Y-14624190D02*
X10322429Y-14595619D01*
X10322429Y-14595619D02*
X10331953Y-14576571D01*
X10331953Y-14576571D02*
X10341477Y-14548000D01*
X10341477Y-14548000D02*
X10351001Y-14500381D01*
X10351001Y-14500381D02*
X10351001Y-14462286D01*
X10351001Y-14462286D02*
X10341477Y-14414667D01*
X10341477Y-14414667D02*
X10331953Y-14386095D01*
X10331953Y-14386095D02*
X10322429Y-14367048D01*
X10322429Y-14367048D02*
X10303382Y-14338476D01*
X10303382Y-14338476D02*
X10293858Y-14328952D01*
D14*
X3461000Y-14645000D02*
X3461000Y-14825000D01*
X3371000Y-14735000D02*
X3551000Y-14735000D01*
D11*
X3903381Y-14827524D02*
X3789095Y-14827524D01*
X3846238Y-14827524D02*
X3846238Y-14627524D01*
X3846238Y-14627524D02*
X3827190Y-14656095D01*
X3827190Y-14656095D02*
X3808143Y-14675143D01*
X3808143Y-14675143D02*
X3789095Y-14684667D01*
X3989095Y-14808476D02*
X3998619Y-14818000D01*
X3998619Y-14818000D02*
X3989095Y-14827524D01*
X3989095Y-14827524D02*
X3979571Y-14818000D01*
X3979571Y-14818000D02*
X3989095Y-14808476D01*
X3989095Y-14808476D02*
X3989095Y-14827524D01*
X4112905Y-14713238D02*
X4093857Y-14703714D01*
X4093857Y-14703714D02*
X4084333Y-14694190D01*
X4084333Y-14694190D02*
X4074809Y-14675143D01*
X4074809Y-14675143D02*
X4074809Y-14665619D01*
X4074809Y-14665619D02*
X4084333Y-14646571D01*
X4084333Y-14646571D02*
X4093857Y-14637048D01*
X4093857Y-14637048D02*
X4112905Y-14627524D01*
X4112905Y-14627524D02*
X4151000Y-14627524D01*
X4151000Y-14627524D02*
X4170048Y-14637048D01*
X4170048Y-14637048D02*
X4179571Y-14646571D01*
X4179571Y-14646571D02*
X4189095Y-14665619D01*
X4189095Y-14665619D02*
X4189095Y-14675143D01*
X4189095Y-14675143D02*
X4179571Y-14694190D01*
X4179571Y-14694190D02*
X4170048Y-14703714D01*
X4170048Y-14703714D02*
X4151000Y-14713238D01*
X4151000Y-14713238D02*
X4112905Y-14713238D01*
X4112905Y-14713238D02*
X4093857Y-14722762D01*
X4093857Y-14722762D02*
X4084333Y-14732286D01*
X4084333Y-14732286D02*
X4074809Y-14751333D01*
X4074809Y-14751333D02*
X4074809Y-14789428D01*
X4074809Y-14789428D02*
X4084333Y-14808476D01*
X4084333Y-14808476D02*
X4093857Y-14818000D01*
X4093857Y-14818000D02*
X4112905Y-14827524D01*
X4112905Y-14827524D02*
X4151000Y-14827524D01*
X4151000Y-14827524D02*
X4170048Y-14818000D01*
X4170048Y-14818000D02*
X4179571Y-14808476D01*
X4179571Y-14808476D02*
X4189095Y-14789428D01*
X4189095Y-14789428D02*
X4189095Y-14751333D01*
X4189095Y-14751333D02*
X4179571Y-14732286D01*
X4179571Y-14732286D02*
X4170048Y-14722762D01*
X4170048Y-14722762D02*
X4151000Y-14713238D01*
X4312905Y-14627524D02*
X4331952Y-14627524D01*
X4331952Y-14627524D02*
X4351000Y-14637048D01*
X4351000Y-14637048D02*
X4360524Y-14646571D01*
X4360524Y-14646571D02*
X4370048Y-14665619D01*
X4370048Y-14665619D02*
X4379571Y-14703714D01*
X4379571Y-14703714D02*
X4379571Y-14751333D01*
X4379571Y-14751333D02*
X4370048Y-14789428D01*
X4370048Y-14789428D02*
X4360524Y-14808476D01*
X4360524Y-14808476D02*
X4351000Y-14818000D01*
X4351000Y-14818000D02*
X4331952Y-14827524D01*
X4331952Y-14827524D02*
X4312905Y-14827524D01*
X4312905Y-14827524D02*
X4293857Y-14818000D01*
X4293857Y-14818000D02*
X4284333Y-14808476D01*
X4284333Y-14808476D02*
X4274810Y-14789428D01*
X4274810Y-14789428D02*
X4265286Y-14751333D01*
X4265286Y-14751333D02*
X4265286Y-14703714D01*
X4265286Y-14703714D02*
X4274810Y-14665619D01*
X4274810Y-14665619D02*
X4284333Y-14646571D01*
X4284333Y-14646571D02*
X4293857Y-14637048D01*
X4293857Y-14637048D02*
X4312905Y-14627524D01*
X4503381Y-14627524D02*
X4522429Y-14627524D01*
X4522429Y-14627524D02*
X4541476Y-14637048D01*
X4541476Y-14637048D02*
X4551000Y-14646571D01*
X4551000Y-14646571D02*
X4560524Y-14665619D01*
X4560524Y-14665619D02*
X4570048Y-14703714D01*
X4570048Y-14703714D02*
X4570048Y-14751333D01*
X4570048Y-14751333D02*
X4560524Y-14789428D01*
X4560524Y-14789428D02*
X4551000Y-14808476D01*
X4551000Y-14808476D02*
X4541476Y-14818000D01*
X4541476Y-14818000D02*
X4522429Y-14827524D01*
X4522429Y-14827524D02*
X4503381Y-14827524D01*
X4503381Y-14827524D02*
X4484333Y-14818000D01*
X4484333Y-14818000D02*
X4474810Y-14808476D01*
X4474810Y-14808476D02*
X4465286Y-14789428D01*
X4465286Y-14789428D02*
X4455762Y-14751333D01*
X4455762Y-14751333D02*
X4455762Y-14703714D01*
X4455762Y-14703714D02*
X4465286Y-14665619D01*
X4465286Y-14665619D02*
X4474810Y-14646571D01*
X4474810Y-14646571D02*
X4484333Y-14637048D01*
X4484333Y-14637048D02*
X4503381Y-14627524D01*
X4655762Y-14827524D02*
X4655762Y-14694190D01*
X4655762Y-14713238D02*
X4665286Y-14703714D01*
X4665286Y-14703714D02*
X4684333Y-14694190D01*
X4684333Y-14694190D02*
X4712905Y-14694190D01*
X4712905Y-14694190D02*
X4731952Y-14703714D01*
X4731952Y-14703714D02*
X4741476Y-14722762D01*
X4741476Y-14722762D02*
X4741476Y-14827524D01*
X4741476Y-14722762D02*
X4751000Y-14703714D01*
X4751000Y-14703714D02*
X4770048Y-14694190D01*
X4770048Y-14694190D02*
X4798619Y-14694190D01*
X4798619Y-14694190D02*
X4817667Y-14703714D01*
X4817667Y-14703714D02*
X4827191Y-14722762D01*
X4827191Y-14722762D02*
X4827191Y-14827524D01*
X4922429Y-14827524D02*
X4922429Y-14694190D01*
X4922429Y-14713238D02*
X4931952Y-14703714D01*
X4931952Y-14703714D02*
X4951000Y-14694190D01*
X4951000Y-14694190D02*
X4979572Y-14694190D01*
X4979572Y-14694190D02*
X4998619Y-14703714D01*
X4998619Y-14703714D02*
X5008143Y-14722762D01*
X5008143Y-14722762D02*
X5008143Y-14827524D01*
X5008143Y-14722762D02*
X5017667Y-14703714D01*
X5017667Y-14703714D02*
X5036714Y-14694190D01*
X5036714Y-14694190D02*
X5065286Y-14694190D01*
X5065286Y-14694190D02*
X5084333Y-14703714D01*
X5084333Y-14703714D02*
X5093857Y-14722762D01*
X5093857Y-14722762D02*
X5093857Y-14827524D01*
X5484333Y-14618000D02*
X5312905Y-14875143D01*
X5741476Y-14627524D02*
X5760524Y-14627524D01*
X5760524Y-14627524D02*
X5779572Y-14637048D01*
X5779572Y-14637048D02*
X5789095Y-14646571D01*
X5789095Y-14646571D02*
X5798619Y-14665619D01*
X5798619Y-14665619D02*
X5808143Y-14703714D01*
X5808143Y-14703714D02*
X5808143Y-14751333D01*
X5808143Y-14751333D02*
X5798619Y-14789428D01*
X5798619Y-14789428D02*
X5789095Y-14808476D01*
X5789095Y-14808476D02*
X5779572Y-14818000D01*
X5779572Y-14818000D02*
X5760524Y-14827524D01*
X5760524Y-14827524D02*
X5741476Y-14827524D01*
X5741476Y-14827524D02*
X5722429Y-14818000D01*
X5722429Y-14818000D02*
X5712905Y-14808476D01*
X5712905Y-14808476D02*
X5703381Y-14789428D01*
X5703381Y-14789428D02*
X5693857Y-14751333D01*
X5693857Y-14751333D02*
X5693857Y-14703714D01*
X5693857Y-14703714D02*
X5703381Y-14665619D01*
X5703381Y-14665619D02*
X5712905Y-14646571D01*
X5712905Y-14646571D02*
X5722429Y-14637048D01*
X5722429Y-14637048D02*
X5741476Y-14627524D01*
X5893857Y-14808476D02*
X5903381Y-14818000D01*
X5903381Y-14818000D02*
X5893857Y-14827524D01*
X5893857Y-14827524D02*
X5884333Y-14818000D01*
X5884333Y-14818000D02*
X5893857Y-14808476D01*
X5893857Y-14808476D02*
X5893857Y-14827524D01*
X6027191Y-14627524D02*
X6046238Y-14627524D01*
X6046238Y-14627524D02*
X6065286Y-14637048D01*
X6065286Y-14637048D02*
X6074810Y-14646571D01*
X6074810Y-14646571D02*
X6084333Y-14665619D01*
X6084333Y-14665619D02*
X6093857Y-14703714D01*
X6093857Y-14703714D02*
X6093857Y-14751333D01*
X6093857Y-14751333D02*
X6084333Y-14789428D01*
X6084333Y-14789428D02*
X6074810Y-14808476D01*
X6074810Y-14808476D02*
X6065286Y-14818000D01*
X6065286Y-14818000D02*
X6046238Y-14827524D01*
X6046238Y-14827524D02*
X6027191Y-14827524D01*
X6027191Y-14827524D02*
X6008143Y-14818000D01*
X6008143Y-14818000D02*
X5998619Y-14808476D01*
X5998619Y-14808476D02*
X5989095Y-14789428D01*
X5989095Y-14789428D02*
X5979572Y-14751333D01*
X5979572Y-14751333D02*
X5979572Y-14703714D01*
X5979572Y-14703714D02*
X5989095Y-14665619D01*
X5989095Y-14665619D02*
X5998619Y-14646571D01*
X5998619Y-14646571D02*
X6008143Y-14637048D01*
X6008143Y-14637048D02*
X6027191Y-14627524D01*
X6160524Y-14627524D02*
X6293857Y-14627524D01*
X6293857Y-14627524D02*
X6208143Y-14827524D01*
X6408143Y-14627524D02*
X6427191Y-14627524D01*
X6427191Y-14627524D02*
X6446238Y-14637048D01*
X6446238Y-14637048D02*
X6455762Y-14646571D01*
X6455762Y-14646571D02*
X6465286Y-14665619D01*
X6465286Y-14665619D02*
X6474810Y-14703714D01*
X6474810Y-14703714D02*
X6474810Y-14751333D01*
X6474810Y-14751333D02*
X6465286Y-14789428D01*
X6465286Y-14789428D02*
X6455762Y-14808476D01*
X6455762Y-14808476D02*
X6446238Y-14818000D01*
X6446238Y-14818000D02*
X6427191Y-14827524D01*
X6427191Y-14827524D02*
X6408143Y-14827524D01*
X6408143Y-14827524D02*
X6389095Y-14818000D01*
X6389095Y-14818000D02*
X6379572Y-14808476D01*
X6379572Y-14808476D02*
X6370048Y-14789428D01*
X6370048Y-14789428D02*
X6360524Y-14751333D01*
X6360524Y-14751333D02*
X6360524Y-14703714D01*
X6360524Y-14703714D02*
X6370048Y-14665619D01*
X6370048Y-14665619D02*
X6379572Y-14646571D01*
X6379572Y-14646571D02*
X6389095Y-14637048D01*
X6389095Y-14637048D02*
X6408143Y-14627524D01*
X6570048Y-14827524D02*
X6608143Y-14827524D01*
X6608143Y-14827524D02*
X6627191Y-14818000D01*
X6627191Y-14818000D02*
X6636714Y-14808476D01*
X6636714Y-14808476D02*
X6655762Y-14779905D01*
X6655762Y-14779905D02*
X6665286Y-14741809D01*
X6665286Y-14741809D02*
X6665286Y-14665619D01*
X6665286Y-14665619D02*
X6655762Y-14646571D01*
X6655762Y-14646571D02*
X6646238Y-14637048D01*
X6646238Y-14637048D02*
X6627191Y-14627524D01*
X6627191Y-14627524D02*
X6589095Y-14627524D01*
X6589095Y-14627524D02*
X6570048Y-14637048D01*
X6570048Y-14637048D02*
X6560524Y-14646571D01*
X6560524Y-14646571D02*
X6551000Y-14665619D01*
X6551000Y-14665619D02*
X6551000Y-14713238D01*
X6551000Y-14713238D02*
X6560524Y-14732286D01*
X6560524Y-14732286D02*
X6570048Y-14741809D01*
X6570048Y-14741809D02*
X6589095Y-14751333D01*
X6589095Y-14751333D02*
X6627191Y-14751333D01*
X6627191Y-14751333D02*
X6646238Y-14741809D01*
X6646238Y-14741809D02*
X6655762Y-14732286D01*
X6655762Y-14732286D02*
X6665286Y-14713238D01*
X6741476Y-14627524D02*
X6741476Y-14665619D01*
X6817667Y-14627524D02*
X6817667Y-14665619D01*
X7112905Y-14903714D02*
X7103381Y-14894190D01*
X7103381Y-14894190D02*
X7084334Y-14865619D01*
X7084334Y-14865619D02*
X7074810Y-14846571D01*
X7074810Y-14846571D02*
X7065286Y-14818000D01*
X7065286Y-14818000D02*
X7055762Y-14770381D01*
X7055762Y-14770381D02*
X7055762Y-14732286D01*
X7055762Y-14732286D02*
X7065286Y-14684667D01*
X7065286Y-14684667D02*
X7074810Y-14656095D01*
X7074810Y-14656095D02*
X7084334Y-14637048D01*
X7084334Y-14637048D02*
X7103381Y-14608476D01*
X7103381Y-14608476D02*
X7112905Y-14598952D01*
X7179572Y-14646571D02*
X7189095Y-14637048D01*
X7189095Y-14637048D02*
X7208143Y-14627524D01*
X7208143Y-14627524D02*
X7255762Y-14627524D01*
X7255762Y-14627524D02*
X7274810Y-14637048D01*
X7274810Y-14637048D02*
X7284334Y-14646571D01*
X7284334Y-14646571D02*
X7293857Y-14665619D01*
X7293857Y-14665619D02*
X7293857Y-14684667D01*
X7293857Y-14684667D02*
X7284334Y-14713238D01*
X7284334Y-14713238D02*
X7170048Y-14827524D01*
X7170048Y-14827524D02*
X7293857Y-14827524D01*
X7531953Y-14827524D02*
X7531953Y-14627524D01*
X7617667Y-14827524D02*
X7617667Y-14722762D01*
X7617667Y-14722762D02*
X7608143Y-14703714D01*
X7608143Y-14703714D02*
X7589096Y-14694190D01*
X7589096Y-14694190D02*
X7560524Y-14694190D01*
X7560524Y-14694190D02*
X7541476Y-14703714D01*
X7541476Y-14703714D02*
X7531953Y-14713238D01*
X7741476Y-14827524D02*
X7722429Y-14818000D01*
X7722429Y-14818000D02*
X7712905Y-14808476D01*
X7712905Y-14808476D02*
X7703381Y-14789428D01*
X7703381Y-14789428D02*
X7703381Y-14732286D01*
X7703381Y-14732286D02*
X7712905Y-14713238D01*
X7712905Y-14713238D02*
X7722429Y-14703714D01*
X7722429Y-14703714D02*
X7741476Y-14694190D01*
X7741476Y-14694190D02*
X7770048Y-14694190D01*
X7770048Y-14694190D02*
X7789096Y-14703714D01*
X7789096Y-14703714D02*
X7798619Y-14713238D01*
X7798619Y-14713238D02*
X7808143Y-14732286D01*
X7808143Y-14732286D02*
X7808143Y-14789428D01*
X7808143Y-14789428D02*
X7798619Y-14808476D01*
X7798619Y-14808476D02*
X7789096Y-14818000D01*
X7789096Y-14818000D02*
X7770048Y-14827524D01*
X7770048Y-14827524D02*
X7741476Y-14827524D01*
X7922429Y-14827524D02*
X7903381Y-14818000D01*
X7903381Y-14818000D02*
X7893857Y-14798952D01*
X7893857Y-14798952D02*
X7893857Y-14627524D01*
X8074810Y-14818000D02*
X8055762Y-14827524D01*
X8055762Y-14827524D02*
X8017667Y-14827524D01*
X8017667Y-14827524D02*
X7998619Y-14818000D01*
X7998619Y-14818000D02*
X7989096Y-14798952D01*
X7989096Y-14798952D02*
X7989096Y-14722762D01*
X7989096Y-14722762D02*
X7998619Y-14703714D01*
X7998619Y-14703714D02*
X8017667Y-14694190D01*
X8017667Y-14694190D02*
X8055762Y-14694190D01*
X8055762Y-14694190D02*
X8074810Y-14703714D01*
X8074810Y-14703714D02*
X8084334Y-14722762D01*
X8084334Y-14722762D02*
X8084334Y-14741809D01*
X8084334Y-14741809D02*
X7989096Y-14760857D01*
X8160524Y-14818000D02*
X8179572Y-14827524D01*
X8179572Y-14827524D02*
X8217667Y-14827524D01*
X8217667Y-14827524D02*
X8236715Y-14818000D01*
X8236715Y-14818000D02*
X8246238Y-14798952D01*
X8246238Y-14798952D02*
X8246238Y-14789428D01*
X8246238Y-14789428D02*
X8236715Y-14770381D01*
X8236715Y-14770381D02*
X8217667Y-14760857D01*
X8217667Y-14760857D02*
X8189096Y-14760857D01*
X8189096Y-14760857D02*
X8170048Y-14751333D01*
X8170048Y-14751333D02*
X8160524Y-14732286D01*
X8160524Y-14732286D02*
X8160524Y-14722762D01*
X8160524Y-14722762D02*
X8170048Y-14703714D01*
X8170048Y-14703714D02*
X8189096Y-14694190D01*
X8189096Y-14694190D02*
X8217667Y-14694190D01*
X8217667Y-14694190D02*
X8236715Y-14703714D01*
X8312905Y-14903714D02*
X8322429Y-14894190D01*
X8322429Y-14894190D02*
X8341477Y-14865619D01*
X8341477Y-14865619D02*
X8351000Y-14846571D01*
X8351000Y-14846571D02*
X8360524Y-14818000D01*
X8360524Y-14818000D02*
X8370048Y-14770381D01*
X8370048Y-14770381D02*
X8370048Y-14732286D01*
X8370048Y-14732286D02*
X8360524Y-14684667D01*
X8360524Y-14684667D02*
X8351000Y-14656095D01*
X8351000Y-14656095D02*
X8341477Y-14637048D01*
X8341477Y-14637048D02*
X8322429Y-14608476D01*
X8322429Y-14608476D02*
X8312905Y-14598952D01*
X8674810Y-14903714D02*
X8665286Y-14894190D01*
X8665286Y-14894190D02*
X8646239Y-14865619D01*
X8646239Y-14865619D02*
X8636715Y-14846571D01*
X8636715Y-14846571D02*
X8627191Y-14818000D01*
X8627191Y-14818000D02*
X8617667Y-14770381D01*
X8617667Y-14770381D02*
X8617667Y-14732286D01*
X8617667Y-14732286D02*
X8627191Y-14684667D01*
X8627191Y-14684667D02*
X8636715Y-14656095D01*
X8636715Y-14656095D02*
X8646239Y-14637048D01*
X8646239Y-14637048D02*
X8665286Y-14608476D01*
X8665286Y-14608476D02*
X8674810Y-14598952D01*
X8751000Y-14694190D02*
X8751000Y-14827524D01*
X8751000Y-14713238D02*
X8760524Y-14703714D01*
X8760524Y-14703714D02*
X8779572Y-14694190D01*
X8779572Y-14694190D02*
X8808143Y-14694190D01*
X8808143Y-14694190D02*
X8827191Y-14703714D01*
X8827191Y-14703714D02*
X8836715Y-14722762D01*
X8836715Y-14722762D02*
X8836715Y-14827524D01*
X8960524Y-14827524D02*
X8941477Y-14818000D01*
X8941477Y-14818000D02*
X8931953Y-14808476D01*
X8931953Y-14808476D02*
X8922429Y-14789428D01*
X8922429Y-14789428D02*
X8922429Y-14732286D01*
X8922429Y-14732286D02*
X8931953Y-14713238D01*
X8931953Y-14713238D02*
X8941477Y-14703714D01*
X8941477Y-14703714D02*
X8960524Y-14694190D01*
X8960524Y-14694190D02*
X8989096Y-14694190D01*
X8989096Y-14694190D02*
X9008143Y-14703714D01*
X9008143Y-14703714D02*
X9017667Y-14713238D01*
X9017667Y-14713238D02*
X9027191Y-14732286D01*
X9027191Y-14732286D02*
X9027191Y-14789428D01*
X9027191Y-14789428D02*
X9017667Y-14808476D01*
X9017667Y-14808476D02*
X9008143Y-14818000D01*
X9008143Y-14818000D02*
X8989096Y-14827524D01*
X8989096Y-14827524D02*
X8960524Y-14827524D01*
X9084334Y-14694190D02*
X9160524Y-14694190D01*
X9112905Y-14627524D02*
X9112905Y-14798952D01*
X9112905Y-14798952D02*
X9122429Y-14818000D01*
X9122429Y-14818000D02*
X9141477Y-14827524D01*
X9141477Y-14827524D02*
X9160524Y-14827524D01*
X9379572Y-14694190D02*
X9379572Y-14894190D01*
X9379572Y-14703714D02*
X9398620Y-14694190D01*
X9398620Y-14694190D02*
X9436715Y-14694190D01*
X9436715Y-14694190D02*
X9455762Y-14703714D01*
X9455762Y-14703714D02*
X9465286Y-14713238D01*
X9465286Y-14713238D02*
X9474810Y-14732286D01*
X9474810Y-14732286D02*
X9474810Y-14789428D01*
X9474810Y-14789428D02*
X9465286Y-14808476D01*
X9465286Y-14808476D02*
X9455762Y-14818000D01*
X9455762Y-14818000D02*
X9436715Y-14827524D01*
X9436715Y-14827524D02*
X9398620Y-14827524D01*
X9398620Y-14827524D02*
X9379572Y-14818000D01*
X9589096Y-14827524D02*
X9570048Y-14818000D01*
X9570048Y-14818000D02*
X9560524Y-14798952D01*
X9560524Y-14798952D02*
X9560524Y-14627524D01*
X9751001Y-14827524D02*
X9751001Y-14722762D01*
X9751001Y-14722762D02*
X9741477Y-14703714D01*
X9741477Y-14703714D02*
X9722429Y-14694190D01*
X9722429Y-14694190D02*
X9684334Y-14694190D01*
X9684334Y-14694190D02*
X9665286Y-14703714D01*
X9751001Y-14818000D02*
X9731953Y-14827524D01*
X9731953Y-14827524D02*
X9684334Y-14827524D01*
X9684334Y-14827524D02*
X9665286Y-14818000D01*
X9665286Y-14818000D02*
X9655762Y-14798952D01*
X9655762Y-14798952D02*
X9655762Y-14779905D01*
X9655762Y-14779905D02*
X9665286Y-14760857D01*
X9665286Y-14760857D02*
X9684334Y-14751333D01*
X9684334Y-14751333D02*
X9731953Y-14751333D01*
X9731953Y-14751333D02*
X9751001Y-14741809D01*
X9817667Y-14694190D02*
X9893858Y-14694190D01*
X9846239Y-14627524D02*
X9846239Y-14798952D01*
X9846239Y-14798952D02*
X9855762Y-14818000D01*
X9855762Y-14818000D02*
X9874810Y-14827524D01*
X9874810Y-14827524D02*
X9893858Y-14827524D01*
X10036715Y-14818000D02*
X10017667Y-14827524D01*
X10017667Y-14827524D02*
X9979572Y-14827524D01*
X9979572Y-14827524D02*
X9960524Y-14818000D01*
X9960524Y-14818000D02*
X9951001Y-14798952D01*
X9951001Y-14798952D02*
X9951001Y-14722762D01*
X9951001Y-14722762D02*
X9960524Y-14703714D01*
X9960524Y-14703714D02*
X9979572Y-14694190D01*
X9979572Y-14694190D02*
X10017667Y-14694190D01*
X10017667Y-14694190D02*
X10036715Y-14703714D01*
X10036715Y-14703714D02*
X10046239Y-14722762D01*
X10046239Y-14722762D02*
X10046239Y-14741809D01*
X10046239Y-14741809D02*
X9951001Y-14760857D01*
X10217667Y-14827524D02*
X10217667Y-14627524D01*
X10217667Y-14818000D02*
X10198620Y-14827524D01*
X10198620Y-14827524D02*
X10160524Y-14827524D01*
X10160524Y-14827524D02*
X10141477Y-14818000D01*
X10141477Y-14818000D02*
X10131953Y-14808476D01*
X10131953Y-14808476D02*
X10122429Y-14789428D01*
X10122429Y-14789428D02*
X10122429Y-14732286D01*
X10122429Y-14732286D02*
X10131953Y-14713238D01*
X10131953Y-14713238D02*
X10141477Y-14703714D01*
X10141477Y-14703714D02*
X10160524Y-14694190D01*
X10160524Y-14694190D02*
X10198620Y-14694190D01*
X10198620Y-14694190D02*
X10217667Y-14703714D01*
X10293858Y-14903714D02*
X10303382Y-14894190D01*
X10303382Y-14894190D02*
X10322429Y-14865619D01*
X10322429Y-14865619D02*
X10331953Y-14846571D01*
X10331953Y-14846571D02*
X10341477Y-14818000D01*
X10341477Y-14818000D02*
X10351001Y-14770381D01*
X10351001Y-14770381D02*
X10351001Y-14732286D01*
X10351001Y-14732286D02*
X10341477Y-14684667D01*
X10341477Y-14684667D02*
X10331953Y-14656095D01*
X10331953Y-14656095D02*
X10322429Y-14637048D01*
X10322429Y-14637048D02*
X10303382Y-14608476D01*
X10303382Y-14608476D02*
X10293858Y-14598952D01*
X3521711Y-15105711D02*
X3521711Y-14964289D01*
X3380289Y-14964289D01*
X3380289Y-15105711D01*
X3521711Y-15105711D01*
X3884333Y-14994190D02*
X3884333Y-15127524D01*
X3836714Y-14918000D02*
X3789095Y-15060857D01*
X3789095Y-15060857D02*
X3912905Y-15060857D01*
X3989095Y-15108476D02*
X3998619Y-15118000D01*
X3998619Y-15118000D02*
X3989095Y-15127524D01*
X3989095Y-15127524D02*
X3979571Y-15118000D01*
X3979571Y-15118000D02*
X3989095Y-15108476D01*
X3989095Y-15108476D02*
X3989095Y-15127524D01*
X4122428Y-14927524D02*
X4141476Y-14927524D01*
X4141476Y-14927524D02*
X4160524Y-14937048D01*
X4160524Y-14937048D02*
X4170048Y-14946571D01*
X4170048Y-14946571D02*
X4179571Y-14965619D01*
X4179571Y-14965619D02*
X4189095Y-15003714D01*
X4189095Y-15003714D02*
X4189095Y-15051333D01*
X4189095Y-15051333D02*
X4179571Y-15089428D01*
X4179571Y-15089428D02*
X4170048Y-15108476D01*
X4170048Y-15108476D02*
X4160524Y-15118000D01*
X4160524Y-15118000D02*
X4141476Y-15127524D01*
X4141476Y-15127524D02*
X4122428Y-15127524D01*
X4122428Y-15127524D02*
X4103381Y-15118000D01*
X4103381Y-15118000D02*
X4093857Y-15108476D01*
X4093857Y-15108476D02*
X4084333Y-15089428D01*
X4084333Y-15089428D02*
X4074809Y-15051333D01*
X4074809Y-15051333D02*
X4074809Y-15003714D01*
X4074809Y-15003714D02*
X4084333Y-14965619D01*
X4084333Y-14965619D02*
X4093857Y-14946571D01*
X4093857Y-14946571D02*
X4103381Y-14937048D01*
X4103381Y-14937048D02*
X4122428Y-14927524D01*
X4312905Y-14927524D02*
X4331952Y-14927524D01*
X4331952Y-14927524D02*
X4351000Y-14937048D01*
X4351000Y-14937048D02*
X4360524Y-14946571D01*
X4360524Y-14946571D02*
X4370048Y-14965619D01*
X4370048Y-14965619D02*
X4379571Y-15003714D01*
X4379571Y-15003714D02*
X4379571Y-15051333D01*
X4379571Y-15051333D02*
X4370048Y-15089428D01*
X4370048Y-15089428D02*
X4360524Y-15108476D01*
X4360524Y-15108476D02*
X4351000Y-15118000D01*
X4351000Y-15118000D02*
X4331952Y-15127524D01*
X4331952Y-15127524D02*
X4312905Y-15127524D01*
X4312905Y-15127524D02*
X4293857Y-15118000D01*
X4293857Y-15118000D02*
X4284333Y-15108476D01*
X4284333Y-15108476D02*
X4274810Y-15089428D01*
X4274810Y-15089428D02*
X4265286Y-15051333D01*
X4265286Y-15051333D02*
X4265286Y-15003714D01*
X4265286Y-15003714D02*
X4274810Y-14965619D01*
X4274810Y-14965619D02*
X4284333Y-14946571D01*
X4284333Y-14946571D02*
X4293857Y-14937048D01*
X4293857Y-14937048D02*
X4312905Y-14927524D01*
X4503381Y-14927524D02*
X4522429Y-14927524D01*
X4522429Y-14927524D02*
X4541476Y-14937048D01*
X4541476Y-14937048D02*
X4551000Y-14946571D01*
X4551000Y-14946571D02*
X4560524Y-14965619D01*
X4560524Y-14965619D02*
X4570048Y-15003714D01*
X4570048Y-15003714D02*
X4570048Y-15051333D01*
X4570048Y-15051333D02*
X4560524Y-15089428D01*
X4560524Y-15089428D02*
X4551000Y-15108476D01*
X4551000Y-15108476D02*
X4541476Y-15118000D01*
X4541476Y-15118000D02*
X4522429Y-15127524D01*
X4522429Y-15127524D02*
X4503381Y-15127524D01*
X4503381Y-15127524D02*
X4484333Y-15118000D01*
X4484333Y-15118000D02*
X4474810Y-15108476D01*
X4474810Y-15108476D02*
X4465286Y-15089428D01*
X4465286Y-15089428D02*
X4455762Y-15051333D01*
X4455762Y-15051333D02*
X4455762Y-15003714D01*
X4455762Y-15003714D02*
X4465286Y-14965619D01*
X4465286Y-14965619D02*
X4474810Y-14946571D01*
X4474810Y-14946571D02*
X4484333Y-14937048D01*
X4484333Y-14937048D02*
X4503381Y-14927524D01*
X4655762Y-15127524D02*
X4655762Y-14994190D01*
X4655762Y-15013238D02*
X4665286Y-15003714D01*
X4665286Y-15003714D02*
X4684333Y-14994190D01*
X4684333Y-14994190D02*
X4712905Y-14994190D01*
X4712905Y-14994190D02*
X4731952Y-15003714D01*
X4731952Y-15003714D02*
X4741476Y-15022762D01*
X4741476Y-15022762D02*
X4741476Y-15127524D01*
X4741476Y-15022762D02*
X4751000Y-15003714D01*
X4751000Y-15003714D02*
X4770048Y-14994190D01*
X4770048Y-14994190D02*
X4798619Y-14994190D01*
X4798619Y-14994190D02*
X4817667Y-15003714D01*
X4817667Y-15003714D02*
X4827191Y-15022762D01*
X4827191Y-15022762D02*
X4827191Y-15127524D01*
X4922429Y-15127524D02*
X4922429Y-14994190D01*
X4922429Y-15013238D02*
X4931952Y-15003714D01*
X4931952Y-15003714D02*
X4951000Y-14994190D01*
X4951000Y-14994190D02*
X4979572Y-14994190D01*
X4979572Y-14994190D02*
X4998619Y-15003714D01*
X4998619Y-15003714D02*
X5008143Y-15022762D01*
X5008143Y-15022762D02*
X5008143Y-15127524D01*
X5008143Y-15022762D02*
X5017667Y-15003714D01*
X5017667Y-15003714D02*
X5036714Y-14994190D01*
X5036714Y-14994190D02*
X5065286Y-14994190D01*
X5065286Y-14994190D02*
X5084333Y-15003714D01*
X5084333Y-15003714D02*
X5093857Y-15022762D01*
X5093857Y-15022762D02*
X5093857Y-15127524D01*
X5484333Y-14918000D02*
X5312905Y-15175143D01*
X5741476Y-14927524D02*
X5760524Y-14927524D01*
X5760524Y-14927524D02*
X5779572Y-14937048D01*
X5779572Y-14937048D02*
X5789095Y-14946571D01*
X5789095Y-14946571D02*
X5798619Y-14965619D01*
X5798619Y-14965619D02*
X5808143Y-15003714D01*
X5808143Y-15003714D02*
X5808143Y-15051333D01*
X5808143Y-15051333D02*
X5798619Y-15089428D01*
X5798619Y-15089428D02*
X5789095Y-15108476D01*
X5789095Y-15108476D02*
X5779572Y-15118000D01*
X5779572Y-15118000D02*
X5760524Y-15127524D01*
X5760524Y-15127524D02*
X5741476Y-15127524D01*
X5741476Y-15127524D02*
X5722429Y-15118000D01*
X5722429Y-15118000D02*
X5712905Y-15108476D01*
X5712905Y-15108476D02*
X5703381Y-15089428D01*
X5703381Y-15089428D02*
X5693857Y-15051333D01*
X5693857Y-15051333D02*
X5693857Y-15003714D01*
X5693857Y-15003714D02*
X5703381Y-14965619D01*
X5703381Y-14965619D02*
X5712905Y-14946571D01*
X5712905Y-14946571D02*
X5722429Y-14937048D01*
X5722429Y-14937048D02*
X5741476Y-14927524D01*
X5893857Y-15108476D02*
X5903381Y-15118000D01*
X5903381Y-15118000D02*
X5893857Y-15127524D01*
X5893857Y-15127524D02*
X5884333Y-15118000D01*
X5884333Y-15118000D02*
X5893857Y-15108476D01*
X5893857Y-15108476D02*
X5893857Y-15127524D01*
X6093857Y-15127524D02*
X5979572Y-15127524D01*
X6036714Y-15127524D02*
X6036714Y-14927524D01*
X6036714Y-14927524D02*
X6017667Y-14956095D01*
X6017667Y-14956095D02*
X5998619Y-14975143D01*
X5998619Y-14975143D02*
X5979572Y-14984667D01*
X6274810Y-14927524D02*
X6179572Y-14927524D01*
X6179572Y-14927524D02*
X6170048Y-15022762D01*
X6170048Y-15022762D02*
X6179572Y-15013238D01*
X6179572Y-15013238D02*
X6198619Y-15003714D01*
X6198619Y-15003714D02*
X6246238Y-15003714D01*
X6246238Y-15003714D02*
X6265286Y-15013238D01*
X6265286Y-15013238D02*
X6274810Y-15022762D01*
X6274810Y-15022762D02*
X6284333Y-15041809D01*
X6284333Y-15041809D02*
X6284333Y-15089428D01*
X6284333Y-15089428D02*
X6274810Y-15108476D01*
X6274810Y-15108476D02*
X6265286Y-15118000D01*
X6265286Y-15118000D02*
X6246238Y-15127524D01*
X6246238Y-15127524D02*
X6198619Y-15127524D01*
X6198619Y-15127524D02*
X6179572Y-15118000D01*
X6179572Y-15118000D02*
X6170048Y-15108476D01*
X6351000Y-14927524D02*
X6484333Y-14927524D01*
X6484333Y-14927524D02*
X6398619Y-15127524D01*
X6655762Y-14927524D02*
X6560524Y-14927524D01*
X6560524Y-14927524D02*
X6551000Y-15022762D01*
X6551000Y-15022762D02*
X6560524Y-15013238D01*
X6560524Y-15013238D02*
X6579572Y-15003714D01*
X6579572Y-15003714D02*
X6627191Y-15003714D01*
X6627191Y-15003714D02*
X6646238Y-15013238D01*
X6646238Y-15013238D02*
X6655762Y-15022762D01*
X6655762Y-15022762D02*
X6665286Y-15041809D01*
X6665286Y-15041809D02*
X6665286Y-15089428D01*
X6665286Y-15089428D02*
X6655762Y-15108476D01*
X6655762Y-15108476D02*
X6646238Y-15118000D01*
X6646238Y-15118000D02*
X6627191Y-15127524D01*
X6627191Y-15127524D02*
X6579572Y-15127524D01*
X6579572Y-15127524D02*
X6560524Y-15118000D01*
X6560524Y-15118000D02*
X6551000Y-15108476D01*
X6741476Y-14927524D02*
X6741476Y-14965619D01*
X6817667Y-14927524D02*
X6817667Y-14965619D01*
X7112905Y-15203714D02*
X7103381Y-15194190D01*
X7103381Y-15194190D02*
X7084334Y-15165619D01*
X7084334Y-15165619D02*
X7074810Y-15146571D01*
X7074810Y-15146571D02*
X7065286Y-15118000D01*
X7065286Y-15118000D02*
X7055762Y-15070381D01*
X7055762Y-15070381D02*
X7055762Y-15032286D01*
X7055762Y-15032286D02*
X7065286Y-14984667D01*
X7065286Y-14984667D02*
X7074810Y-14956095D01*
X7074810Y-14956095D02*
X7084334Y-14937048D01*
X7084334Y-14937048D02*
X7103381Y-14908476D01*
X7103381Y-14908476D02*
X7112905Y-14898952D01*
X7274810Y-14927524D02*
X7236714Y-14927524D01*
X7236714Y-14927524D02*
X7217667Y-14937048D01*
X7217667Y-14937048D02*
X7208143Y-14946571D01*
X7208143Y-14946571D02*
X7189095Y-14975143D01*
X7189095Y-14975143D02*
X7179572Y-15013238D01*
X7179572Y-15013238D02*
X7179572Y-15089428D01*
X7179572Y-15089428D02*
X7189095Y-15108476D01*
X7189095Y-15108476D02*
X7198619Y-15118000D01*
X7198619Y-15118000D02*
X7217667Y-15127524D01*
X7217667Y-15127524D02*
X7255762Y-15127524D01*
X7255762Y-15127524D02*
X7274810Y-15118000D01*
X7274810Y-15118000D02*
X7284334Y-15108476D01*
X7284334Y-15108476D02*
X7293857Y-15089428D01*
X7293857Y-15089428D02*
X7293857Y-15041809D01*
X7293857Y-15041809D02*
X7284334Y-15022762D01*
X7284334Y-15022762D02*
X7274810Y-15013238D01*
X7274810Y-15013238D02*
X7255762Y-15003714D01*
X7255762Y-15003714D02*
X7217667Y-15003714D01*
X7217667Y-15003714D02*
X7198619Y-15013238D01*
X7198619Y-15013238D02*
X7189095Y-15022762D01*
X7189095Y-15022762D02*
X7179572Y-15041809D01*
X7531953Y-15127524D02*
X7531953Y-14927524D01*
X7617667Y-15127524D02*
X7617667Y-15022762D01*
X7617667Y-15022762D02*
X7608143Y-15003714D01*
X7608143Y-15003714D02*
X7589096Y-14994190D01*
X7589096Y-14994190D02*
X7560524Y-14994190D01*
X7560524Y-14994190D02*
X7541476Y-15003714D01*
X7541476Y-15003714D02*
X7531953Y-15013238D01*
X7741476Y-15127524D02*
X7722429Y-15118000D01*
X7722429Y-15118000D02*
X7712905Y-15108476D01*
X7712905Y-15108476D02*
X7703381Y-15089428D01*
X7703381Y-15089428D02*
X7703381Y-15032286D01*
X7703381Y-15032286D02*
X7712905Y-15013238D01*
X7712905Y-15013238D02*
X7722429Y-15003714D01*
X7722429Y-15003714D02*
X7741476Y-14994190D01*
X7741476Y-14994190D02*
X7770048Y-14994190D01*
X7770048Y-14994190D02*
X7789096Y-15003714D01*
X7789096Y-15003714D02*
X7798619Y-15013238D01*
X7798619Y-15013238D02*
X7808143Y-15032286D01*
X7808143Y-15032286D02*
X7808143Y-15089428D01*
X7808143Y-15089428D02*
X7798619Y-15108476D01*
X7798619Y-15108476D02*
X7789096Y-15118000D01*
X7789096Y-15118000D02*
X7770048Y-15127524D01*
X7770048Y-15127524D02*
X7741476Y-15127524D01*
X7922429Y-15127524D02*
X7903381Y-15118000D01*
X7903381Y-15118000D02*
X7893857Y-15098952D01*
X7893857Y-15098952D02*
X7893857Y-14927524D01*
X8074810Y-15118000D02*
X8055762Y-15127524D01*
X8055762Y-15127524D02*
X8017667Y-15127524D01*
X8017667Y-15127524D02*
X7998619Y-15118000D01*
X7998619Y-15118000D02*
X7989096Y-15098952D01*
X7989096Y-15098952D02*
X7989096Y-15022762D01*
X7989096Y-15022762D02*
X7998619Y-15003714D01*
X7998619Y-15003714D02*
X8017667Y-14994190D01*
X8017667Y-14994190D02*
X8055762Y-14994190D01*
X8055762Y-14994190D02*
X8074810Y-15003714D01*
X8074810Y-15003714D02*
X8084334Y-15022762D01*
X8084334Y-15022762D02*
X8084334Y-15041809D01*
X8084334Y-15041809D02*
X7989096Y-15060857D01*
X8160524Y-15118000D02*
X8179572Y-15127524D01*
X8179572Y-15127524D02*
X8217667Y-15127524D01*
X8217667Y-15127524D02*
X8236715Y-15118000D01*
X8236715Y-15118000D02*
X8246238Y-15098952D01*
X8246238Y-15098952D02*
X8246238Y-15089428D01*
X8246238Y-15089428D02*
X8236715Y-15070381D01*
X8236715Y-15070381D02*
X8217667Y-15060857D01*
X8217667Y-15060857D02*
X8189096Y-15060857D01*
X8189096Y-15060857D02*
X8170048Y-15051333D01*
X8170048Y-15051333D02*
X8160524Y-15032286D01*
X8160524Y-15032286D02*
X8160524Y-15022762D01*
X8160524Y-15022762D02*
X8170048Y-15003714D01*
X8170048Y-15003714D02*
X8189096Y-14994190D01*
X8189096Y-14994190D02*
X8217667Y-14994190D01*
X8217667Y-14994190D02*
X8236715Y-15003714D01*
X8312905Y-15203714D02*
X8322429Y-15194190D01*
X8322429Y-15194190D02*
X8341477Y-15165619D01*
X8341477Y-15165619D02*
X8351000Y-15146571D01*
X8351000Y-15146571D02*
X8360524Y-15118000D01*
X8360524Y-15118000D02*
X8370048Y-15070381D01*
X8370048Y-15070381D02*
X8370048Y-15032286D01*
X8370048Y-15032286D02*
X8360524Y-14984667D01*
X8360524Y-14984667D02*
X8351000Y-14956095D01*
X8351000Y-14956095D02*
X8341477Y-14937048D01*
X8341477Y-14937048D02*
X8322429Y-14908476D01*
X8322429Y-14908476D02*
X8312905Y-14898952D01*
X8674810Y-15203714D02*
X8665286Y-15194190D01*
X8665286Y-15194190D02*
X8646239Y-15165619D01*
X8646239Y-15165619D02*
X8636715Y-15146571D01*
X8636715Y-15146571D02*
X8627191Y-15118000D01*
X8627191Y-15118000D02*
X8617667Y-15070381D01*
X8617667Y-15070381D02*
X8617667Y-15032286D01*
X8617667Y-15032286D02*
X8627191Y-14984667D01*
X8627191Y-14984667D02*
X8636715Y-14956095D01*
X8636715Y-14956095D02*
X8646239Y-14937048D01*
X8646239Y-14937048D02*
X8665286Y-14908476D01*
X8665286Y-14908476D02*
X8674810Y-14898952D01*
X8751000Y-14994190D02*
X8751000Y-15127524D01*
X8751000Y-15013238D02*
X8760524Y-15003714D01*
X8760524Y-15003714D02*
X8779572Y-14994190D01*
X8779572Y-14994190D02*
X8808143Y-14994190D01*
X8808143Y-14994190D02*
X8827191Y-15003714D01*
X8827191Y-15003714D02*
X8836715Y-15022762D01*
X8836715Y-15022762D02*
X8836715Y-15127524D01*
X8960524Y-15127524D02*
X8941477Y-15118000D01*
X8941477Y-15118000D02*
X8931953Y-15108476D01*
X8931953Y-15108476D02*
X8922429Y-15089428D01*
X8922429Y-15089428D02*
X8922429Y-15032286D01*
X8922429Y-15032286D02*
X8931953Y-15013238D01*
X8931953Y-15013238D02*
X8941477Y-15003714D01*
X8941477Y-15003714D02*
X8960524Y-14994190D01*
X8960524Y-14994190D02*
X8989096Y-14994190D01*
X8989096Y-14994190D02*
X9008143Y-15003714D01*
X9008143Y-15003714D02*
X9017667Y-15013238D01*
X9017667Y-15013238D02*
X9027191Y-15032286D01*
X9027191Y-15032286D02*
X9027191Y-15089428D01*
X9027191Y-15089428D02*
X9017667Y-15108476D01*
X9017667Y-15108476D02*
X9008143Y-15118000D01*
X9008143Y-15118000D02*
X8989096Y-15127524D01*
X8989096Y-15127524D02*
X8960524Y-15127524D01*
X9084334Y-14994190D02*
X9160524Y-14994190D01*
X9112905Y-14927524D02*
X9112905Y-15098952D01*
X9112905Y-15098952D02*
X9122429Y-15118000D01*
X9122429Y-15118000D02*
X9141477Y-15127524D01*
X9141477Y-15127524D02*
X9160524Y-15127524D01*
X9379572Y-14994190D02*
X9379572Y-15194190D01*
X9379572Y-15003714D02*
X9398620Y-14994190D01*
X9398620Y-14994190D02*
X9436715Y-14994190D01*
X9436715Y-14994190D02*
X9455762Y-15003714D01*
X9455762Y-15003714D02*
X9465286Y-15013238D01*
X9465286Y-15013238D02*
X9474810Y-15032286D01*
X9474810Y-15032286D02*
X9474810Y-15089428D01*
X9474810Y-15089428D02*
X9465286Y-15108476D01*
X9465286Y-15108476D02*
X9455762Y-15118000D01*
X9455762Y-15118000D02*
X9436715Y-15127524D01*
X9436715Y-15127524D02*
X9398620Y-15127524D01*
X9398620Y-15127524D02*
X9379572Y-15118000D01*
X9589096Y-15127524D02*
X9570048Y-15118000D01*
X9570048Y-15118000D02*
X9560524Y-15098952D01*
X9560524Y-15098952D02*
X9560524Y-14927524D01*
X9751001Y-15127524D02*
X9751001Y-15022762D01*
X9751001Y-15022762D02*
X9741477Y-15003714D01*
X9741477Y-15003714D02*
X9722429Y-14994190D01*
X9722429Y-14994190D02*
X9684334Y-14994190D01*
X9684334Y-14994190D02*
X9665286Y-15003714D01*
X9751001Y-15118000D02*
X9731953Y-15127524D01*
X9731953Y-15127524D02*
X9684334Y-15127524D01*
X9684334Y-15127524D02*
X9665286Y-15118000D01*
X9665286Y-15118000D02*
X9655762Y-15098952D01*
X9655762Y-15098952D02*
X9655762Y-15079905D01*
X9655762Y-15079905D02*
X9665286Y-15060857D01*
X9665286Y-15060857D02*
X9684334Y-15051333D01*
X9684334Y-15051333D02*
X9731953Y-15051333D01*
X9731953Y-15051333D02*
X9751001Y-15041809D01*
X9817667Y-14994190D02*
X9893858Y-14994190D01*
X9846239Y-14927524D02*
X9846239Y-15098952D01*
X9846239Y-15098952D02*
X9855762Y-15118000D01*
X9855762Y-15118000D02*
X9874810Y-15127524D01*
X9874810Y-15127524D02*
X9893858Y-15127524D01*
X10036715Y-15118000D02*
X10017667Y-15127524D01*
X10017667Y-15127524D02*
X9979572Y-15127524D01*
X9979572Y-15127524D02*
X9960524Y-15118000D01*
X9960524Y-15118000D02*
X9951001Y-15098952D01*
X9951001Y-15098952D02*
X9951001Y-15022762D01*
X9951001Y-15022762D02*
X9960524Y-15003714D01*
X9960524Y-15003714D02*
X9979572Y-14994190D01*
X9979572Y-14994190D02*
X10017667Y-14994190D01*
X10017667Y-14994190D02*
X10036715Y-15003714D01*
X10036715Y-15003714D02*
X10046239Y-15022762D01*
X10046239Y-15022762D02*
X10046239Y-15041809D01*
X10046239Y-15041809D02*
X9951001Y-15060857D01*
X10217667Y-15127524D02*
X10217667Y-14927524D01*
X10217667Y-15118000D02*
X10198620Y-15127524D01*
X10198620Y-15127524D02*
X10160524Y-15127524D01*
X10160524Y-15127524D02*
X10141477Y-15118000D01*
X10141477Y-15118000D02*
X10131953Y-15108476D01*
X10131953Y-15108476D02*
X10122429Y-15089428D01*
X10122429Y-15089428D02*
X10122429Y-15032286D01*
X10122429Y-15032286D02*
X10131953Y-15013238D01*
X10131953Y-15013238D02*
X10141477Y-15003714D01*
X10141477Y-15003714D02*
X10160524Y-14994190D01*
X10160524Y-14994190D02*
X10198620Y-14994190D01*
X10198620Y-14994190D02*
X10217667Y-15003714D01*
X10293858Y-15203714D02*
X10303382Y-15194190D01*
X10303382Y-15194190D02*
X10322429Y-15165619D01*
X10322429Y-15165619D02*
X10331953Y-15146571D01*
X10331953Y-15146571D02*
X10341477Y-15118000D01*
X10341477Y-15118000D02*
X10351001Y-15070381D01*
X10351001Y-15070381D02*
X10351001Y-15032286D01*
X10351001Y-15032286D02*
X10341477Y-14984667D01*
X10341477Y-14984667D02*
X10331953Y-14956095D01*
X10331953Y-14956095D02*
X10322429Y-14937048D01*
X10322429Y-14937048D02*
X10303382Y-14908476D01*
X10303382Y-14908476D02*
X10293858Y-14898952D01*
M02*
