G04 #@! TF.GenerationSoftware,KiCad,Pcbnew,7.0.1*
G04 #@! TF.CreationDate,2023-04-14T15:45:54-04:00*
G04 #@! TF.ProjectId,ArpeggiatorV1.1,41727065-6767-4696-9174-6f7256312e31,rev?*
G04 #@! TF.SameCoordinates,Original*
G04 #@! TF.FileFunction,Copper,L1,Top*
G04 #@! TF.FilePolarity,Positive*
%FSLAX46Y46*%
G04 Gerber Fmt 4.6, Leading zero omitted, Abs format (unit mm)*
G04 Created by KiCad (PCBNEW 7.0.1) date 2023-04-14 15:45:54*
%MOMM*%
%LPD*%
G01*
G04 APERTURE LIST*
G04 #@! TA.AperFunction,ComponentPad*
%ADD10R,1.800000X1.800000*%
G04 #@! TD*
G04 #@! TA.AperFunction,ComponentPad*
%ADD11C,1.800000*%
G04 #@! TD*
G04 #@! TA.AperFunction,ComponentPad*
%ADD12C,1.600000*%
G04 #@! TD*
G04 #@! TA.AperFunction,ComponentPad*
%ADD13O,1.600000X1.600000*%
G04 #@! TD*
G04 #@! TA.AperFunction,ComponentPad*
%ADD14C,2.000000*%
G04 #@! TD*
G04 #@! TA.AperFunction,ComponentPad*
%ADD15R,1.700000X1.700000*%
G04 #@! TD*
G04 #@! TA.AperFunction,ComponentPad*
%ADD16O,1.700000X1.700000*%
G04 #@! TD*
G04 #@! TA.AperFunction,ComponentPad*
%ADD17O,1.800000X1.800000*%
G04 #@! TD*
G04 #@! TA.AperFunction,ComponentPad*
%ADD18R,1.600000X2.400000*%
G04 #@! TD*
G04 #@! TA.AperFunction,ComponentPad*
%ADD19O,1.600000X2.400000*%
G04 #@! TD*
G04 #@! TA.AperFunction,ComponentPad*
%ADD20R,1.600000X1.600000*%
G04 #@! TD*
G04 #@! TA.AperFunction,WasherPad*
%ADD21C,2.499360*%
G04 #@! TD*
G04 #@! TA.AperFunction,ComponentPad*
%ADD22C,2.499360*%
G04 #@! TD*
G04 #@! TA.AperFunction,ViaPad*
%ADD23C,0.800000*%
G04 #@! TD*
G04 #@! TA.AperFunction,Conductor*
%ADD24C,0.250000*%
G04 #@! TD*
G04 #@! TA.AperFunction,Conductor*
%ADD25C,0.400000*%
G04 #@! TD*
G04 #@! TA.AperFunction,Conductor*
%ADD26C,0.600000*%
G04 #@! TD*
G04 APERTURE END LIST*
D10*
X43180000Y-106680000D03*
D11*
X43180000Y-109220000D03*
D10*
X62230000Y-116840000D03*
D11*
X62230000Y-119380000D03*
D12*
X64135000Y-62865000D03*
D13*
X74295000Y-62865000D03*
D10*
X80010000Y-104140000D03*
D11*
X80010000Y-106680000D03*
D14*
X112470000Y-130520000D03*
X105970000Y-130520000D03*
X112470000Y-126020000D03*
X105970000Y-126020000D03*
D12*
X48260000Y-116840000D03*
D13*
X48260000Y-106680000D03*
D12*
X43815000Y-71120000D03*
D13*
X43815000Y-81280000D03*
D15*
X118095000Y-45015000D03*
D16*
X115555000Y-45015000D03*
X113015000Y-45015000D03*
D15*
X39370000Y-96520000D03*
D16*
X39370000Y-99060000D03*
X39370000Y-101600000D03*
D12*
X57150000Y-106680000D03*
D13*
X57150000Y-116840000D03*
D12*
X44450000Y-96520000D03*
D13*
X44450000Y-86360000D03*
D12*
X57785000Y-56535000D03*
X57785000Y-59035000D03*
X113030000Y-66040000D03*
X115530000Y-66040000D03*
X71755000Y-83185000D03*
D13*
X61595000Y-83185000D03*
D15*
X39370000Y-83835000D03*
D16*
X39370000Y-86375000D03*
X39370000Y-88915000D03*
D14*
X46430000Y-130520000D03*
X39930000Y-130520000D03*
X46430000Y-126020000D03*
X39930000Y-126020000D03*
D10*
X62230000Y-97790000D03*
D11*
X62230000Y-100330000D03*
D12*
X123190000Y-119380000D03*
D13*
X123190000Y-109220000D03*
D12*
X128270000Y-49530000D03*
D13*
X128270000Y-59690000D03*
D10*
X80010000Y-97790000D03*
D11*
X80010000Y-100330000D03*
D12*
X59055000Y-76815000D03*
X59055000Y-74315000D03*
D14*
X85800000Y-130520000D03*
X79300000Y-130520000D03*
X85800000Y-126020000D03*
X79300000Y-126020000D03*
D12*
X52070000Y-116840000D03*
D13*
X52070000Y-106680000D03*
D14*
X68020000Y-130520000D03*
X61520000Y-130520000D03*
X68020000Y-126020000D03*
X61520000Y-126020000D03*
D10*
X62230000Y-91440000D03*
D11*
X62230000Y-93980000D03*
D12*
X48260000Y-96520000D03*
D13*
X48260000Y-86360000D03*
D10*
X62230000Y-110490000D03*
D11*
X62230000Y-113030000D03*
D14*
X126290000Y-126020000D03*
X132790000Y-126020000D03*
X126290000Y-130520000D03*
X132790000Y-130520000D03*
D12*
X86360000Y-107950000D03*
D13*
X96520000Y-107950000D03*
D10*
X46990000Y-58420000D03*
D17*
X54610000Y-58420000D03*
D12*
X86360000Y-115570000D03*
D13*
X96520000Y-115570000D03*
D12*
X67310000Y-104140000D03*
D13*
X67310000Y-93980000D03*
D12*
X119380000Y-119380000D03*
D13*
X119380000Y-109220000D03*
D12*
X113030000Y-63500000D03*
X115530000Y-63500000D03*
D11*
X129540000Y-119380000D03*
D10*
X129540000Y-116840000D03*
D12*
X63500000Y-59035000D03*
X63500000Y-56535000D03*
D18*
X71120000Y-68580000D03*
D19*
X68580000Y-68580000D03*
X66040000Y-68580000D03*
X63500000Y-68580000D03*
X63500000Y-76200000D03*
X66040000Y-76200000D03*
X68580000Y-76200000D03*
X71120000Y-76200000D03*
D12*
X79375000Y-61595000D03*
D13*
X89535000Y-61595000D03*
D10*
X43180000Y-116840000D03*
D11*
X43180000Y-119380000D03*
D10*
X80010000Y-116840000D03*
D11*
X80010000Y-119380000D03*
D10*
X74295000Y-58420000D03*
D17*
X66675000Y-58420000D03*
D12*
X67310000Y-119380000D03*
D13*
X67310000Y-109220000D03*
D12*
X86360000Y-111760000D03*
D13*
X96520000Y-111760000D03*
D10*
X80010000Y-110490000D03*
D11*
X80010000Y-113030000D03*
D10*
X129540000Y-106680000D03*
D11*
X129540000Y-109220000D03*
D12*
X71120000Y-80010000D03*
X68620000Y-80010000D03*
D10*
X109220000Y-116840000D03*
D11*
X109220000Y-119380000D03*
D12*
X47625000Y-81280000D03*
D13*
X57785000Y-81280000D03*
D12*
X71120000Y-104140000D03*
D13*
X71120000Y-93980000D03*
D20*
X123190000Y-60895112D03*
D12*
X123190000Y-58395112D03*
X115570000Y-119380000D03*
D13*
X115570000Y-109220000D03*
D12*
X71120000Y-119380000D03*
D13*
X71120000Y-109220000D03*
D12*
X86360000Y-119380000D03*
D13*
X96520000Y-119380000D03*
D18*
X55765000Y-68580000D03*
D19*
X53225000Y-68580000D03*
X50685000Y-68580000D03*
X48145000Y-68580000D03*
X48145000Y-76200000D03*
X50685000Y-76200000D03*
X53225000Y-76200000D03*
X55765000Y-76200000D03*
D13*
X132080000Y-59690000D03*
D12*
X132080000Y-49530000D03*
X57150000Y-62865000D03*
D13*
X46990000Y-62865000D03*
D10*
X62230000Y-104140000D03*
D11*
X62230000Y-106680000D03*
D21*
X41988740Y-37452300D03*
X51991260Y-37452300D03*
D22*
X54488080Y-47447200D03*
X46990000Y-47449740D03*
X39491920Y-47447200D03*
X51986180Y-49949100D03*
X41993820Y-49949100D03*
D21*
X62308740Y-37452300D03*
X72311260Y-37452300D03*
D22*
X74808080Y-47447200D03*
X67310000Y-47449740D03*
X59811920Y-47447200D03*
X72306180Y-49949100D03*
X62313820Y-49949100D03*
D16*
X133350000Y-88900000D03*
X130810000Y-88900000D03*
D15*
X128270000Y-88900000D03*
D16*
X125730000Y-88900000D03*
X123190000Y-88900000D03*
X120650000Y-88900000D03*
X118110000Y-88900000D03*
D15*
X115570000Y-88900000D03*
D16*
X113030000Y-88900000D03*
X110490000Y-88900000D03*
X107950000Y-88900000D03*
X105410000Y-88900000D03*
D15*
X102870000Y-88900000D03*
D16*
X100330000Y-88900000D03*
X97790000Y-88900000D03*
X95250000Y-88900000D03*
X92710000Y-88900000D03*
D15*
X90170000Y-88900000D03*
D16*
X87630000Y-88900000D03*
X85090000Y-88900000D03*
X85090000Y-71120000D03*
X87630000Y-71120000D03*
D15*
X90170000Y-71120000D03*
D16*
X92710000Y-71120000D03*
X95250000Y-71120000D03*
X97790000Y-71120000D03*
X100330000Y-71120000D03*
D15*
X102870000Y-71120000D03*
D16*
X105410000Y-71120000D03*
X107950000Y-71120000D03*
X110490000Y-71120000D03*
X113030000Y-71120000D03*
D15*
X115570000Y-71120000D03*
D16*
X118110000Y-71120000D03*
X120650000Y-71120000D03*
X123190000Y-71120000D03*
X125730000Y-71120000D03*
D15*
X128270000Y-71120000D03*
D16*
X130810000Y-71120000D03*
X133350000Y-71120000D03*
X85320000Y-82550000D03*
D15*
X85320000Y-80010000D03*
D16*
X85320000Y-77470000D03*
D21*
X82628740Y-37452300D03*
X92631260Y-37452300D03*
D22*
X95128080Y-47447200D03*
X87630000Y-47449740D03*
X80131920Y-47447200D03*
X92626180Y-49949100D03*
X82633820Y-49949100D03*
D23*
X118745000Y-59055000D03*
X115570000Y-59055000D03*
X115570000Y-60325000D03*
X121285000Y-62865000D03*
X126365000Y-52705000D03*
X121920000Y-52705000D03*
X118293109Y-51974001D03*
X113213109Y-51974001D03*
X110490000Y-63500000D03*
X107315000Y-64770000D03*
X104796564Y-65473502D03*
D24*
X101307505Y-67017505D02*
X105410000Y-71120000D01*
X94954053Y-67017503D02*
X101307505Y-67017505D01*
X94884048Y-66947498D02*
X94954053Y-67017503D01*
X81643882Y-66947498D02*
X94884048Y-66947498D01*
X78173004Y-70418376D02*
X81643882Y-66947498D01*
X78173004Y-86926996D02*
X78173004Y-70418376D01*
X77470000Y-87630000D02*
X78173004Y-86926996D01*
X58420000Y-87630000D02*
X77470000Y-87630000D01*
X55880000Y-95250000D02*
X55880000Y-90170000D01*
X55880000Y-90170000D02*
X58420000Y-87630000D01*
X52070000Y-102870000D02*
X52070000Y-99060000D01*
X41910000Y-104140000D02*
X50800000Y-104140000D01*
X39930000Y-106120000D02*
X41910000Y-104140000D01*
X50800000Y-104140000D02*
X52070000Y-102870000D01*
X39930000Y-126020000D02*
X39930000Y-106120000D01*
X52070000Y-99060000D02*
X55880000Y-95250000D01*
D25*
X127635000Y-121285000D02*
X129540000Y-119380000D01*
X121285000Y-121285000D02*
X127635000Y-121285000D01*
X119380000Y-119380000D02*
X121285000Y-121285000D01*
D24*
X39930000Y-126020000D02*
X46430000Y-126020000D01*
X121920000Y-52070000D02*
X121920000Y-52705000D01*
X120650000Y-50800000D02*
X121920000Y-52070000D01*
X111760000Y-50800000D02*
X120650000Y-50800000D01*
D25*
X102235000Y-48895000D02*
X97790000Y-44450000D01*
X110490000Y-48895000D02*
X102235000Y-48895000D01*
D24*
X120650000Y-66675000D02*
X120650000Y-71120000D01*
X120015000Y-66040000D02*
X120650000Y-66675000D01*
X118745000Y-59055000D02*
X120015000Y-60325000D01*
X121920000Y-85090000D02*
X118110000Y-88900000D01*
X121920000Y-66675000D02*
X121920000Y-85090000D01*
X120464501Y-65219501D02*
X121920000Y-66675000D01*
X120464501Y-51884501D02*
X120464501Y-65219501D01*
X111946189Y-51249501D02*
X119829501Y-51249501D01*
X100145191Y-63050499D02*
X111946189Y-51249501D01*
X90187180Y-63169501D02*
X90306182Y-63050499D01*
X79704809Y-63169501D02*
X90187180Y-63169501D01*
X74480499Y-68393811D02*
X79704809Y-63169501D01*
X71755000Y-83185000D02*
X74480499Y-80459501D01*
X118020500Y-52246610D02*
X118293109Y-51974001D01*
X118020500Y-59601190D02*
X118020500Y-52246610D01*
X119380000Y-71755000D02*
X119380000Y-60960690D01*
X85320000Y-82550000D02*
X108585000Y-82550000D01*
X110490000Y-59055000D02*
X115570000Y-59055000D01*
X106045000Y-63500000D02*
X110490000Y-59055000D01*
X100965000Y-63500000D02*
X106045000Y-63500000D01*
X107129501Y-64584501D02*
X107315000Y-64770000D01*
X106562354Y-64749002D02*
X106726855Y-64584501D01*
X106726855Y-64584501D02*
X107129501Y-64584501D01*
X102504176Y-64749002D02*
X106562354Y-64749002D01*
X76200000Y-69711356D02*
X80527354Y-65384002D01*
X75565000Y-85725000D02*
X76200000Y-85090000D01*
X50800000Y-85725000D02*
X75565000Y-85725000D01*
X50165000Y-85090000D02*
X50800000Y-85725000D01*
X45720000Y-85090000D02*
X50165000Y-85090000D01*
X44450000Y-86360000D02*
X45720000Y-85090000D01*
D26*
X110490000Y-60325000D02*
X115570000Y-60325000D01*
X106928178Y-63500000D02*
X107315000Y-63500000D01*
X102235000Y-64135000D02*
X102245499Y-64124501D01*
X101213178Y-64135000D02*
X102235000Y-64135000D01*
D24*
X120015000Y-60325000D02*
X120015000Y-66040000D01*
D26*
X101104675Y-64243503D02*
X101213178Y-64135000D01*
X80149675Y-64243503D02*
X101104675Y-64243503D01*
X75565000Y-68828178D02*
X80149675Y-64243503D01*
X75565000Y-84455000D02*
X75565000Y-68828178D01*
X74930000Y-85090000D02*
X75565000Y-84455000D01*
X63500000Y-85090000D02*
X74930000Y-85090000D01*
X61595000Y-83185000D02*
X63500000Y-85090000D01*
X102245499Y-64124501D02*
X106303677Y-64124501D01*
D24*
X104436563Y-65833503D02*
X104796564Y-65473502D01*
D26*
X106303677Y-64124501D02*
X106928178Y-63500000D01*
D24*
X96443567Y-66118503D02*
X96728567Y-65833503D01*
X95326431Y-66118501D02*
X96443567Y-66118503D01*
X101869176Y-65384002D02*
X102504176Y-64749002D01*
X100845998Y-63619002D02*
X100965000Y-63500000D01*
X74930000Y-68580000D02*
X79890998Y-63619002D01*
X99959002Y-62600998D02*
X111760000Y-50800000D01*
X90119993Y-62600998D02*
X99959002Y-62600998D01*
X80527354Y-65384002D02*
X101869176Y-65384002D01*
X90000991Y-62720000D02*
X90119993Y-62600998D01*
X88950007Y-62600998D02*
X89069009Y-62720000D01*
X79959993Y-62600998D02*
X88950007Y-62600998D01*
X79518620Y-62720000D02*
X79840991Y-62720000D01*
X74030998Y-68207622D02*
X79518620Y-62720000D01*
X74030998Y-73289002D02*
X74030998Y-68207622D01*
X71120000Y-76200000D02*
X74030998Y-73289002D01*
X76200000Y-85090000D02*
X76200000Y-69711356D01*
X119380000Y-60960690D02*
X118020500Y-59601190D01*
X50165000Y-78740000D02*
X47625000Y-81280000D01*
X79840991Y-62720000D02*
X79959993Y-62600998D01*
X60960000Y-73025000D02*
X60960000Y-78105000D01*
X61595000Y-72390000D02*
X60960000Y-73025000D01*
X71755000Y-72390000D02*
X61595000Y-72390000D01*
X73131996Y-71013004D02*
X71755000Y-72390000D01*
X73131996Y-67587756D02*
X73131996Y-71013004D01*
X76306996Y-62123004D02*
X76306996Y-64412756D01*
X90170000Y-59055000D02*
X79375000Y-59055000D01*
X93091497Y-61976497D02*
X90170000Y-59055000D01*
X94611055Y-61976497D02*
X93091497Y-61976497D01*
X94786055Y-62151497D02*
X94611055Y-61976497D01*
X74480499Y-80459501D02*
X74480499Y-68393811D01*
X127635000Y-76200000D02*
X129540000Y-74295000D01*
X96728567Y-65833503D02*
X104436563Y-65833503D01*
X114935000Y-61595000D02*
X115570000Y-62230000D01*
X110490000Y-61595000D02*
X114935000Y-61595000D01*
X108585000Y-65405000D02*
X108585000Y-63500000D01*
X76306996Y-64412756D02*
X73131996Y-67587756D01*
X107706996Y-66283004D02*
X108585000Y-65405000D01*
X96914756Y-66283004D02*
X107706996Y-66283004D01*
X95140242Y-66568002D02*
X96629756Y-66568004D01*
X60325000Y-78740000D02*
X50165000Y-78740000D01*
X81457693Y-66497997D02*
X95070237Y-66497997D01*
X130360499Y-65855191D02*
X130360499Y-59239809D01*
X79890998Y-63619002D02*
X100845998Y-63619002D01*
X77470000Y-86360000D02*
X77470000Y-70485690D01*
X57785000Y-86995000D02*
X76835000Y-86995000D01*
X77470000Y-70485690D02*
X81457693Y-66497997D01*
X54610000Y-90170000D02*
X57785000Y-86995000D01*
X130360499Y-59239809D02*
X121285690Y-50165000D01*
X96629756Y-66568004D02*
X96914756Y-66283004D01*
X48260000Y-101600000D02*
X54610000Y-95250000D01*
X127635000Y-85725000D02*
X127635000Y-76200000D01*
X110861688Y-50165000D02*
X98875191Y-62151497D01*
X39370000Y-101600000D02*
X48260000Y-101600000D01*
X129540000Y-66675690D02*
X130360499Y-65855191D01*
X108585000Y-63500000D02*
X110490000Y-61595000D01*
X54610000Y-95250000D02*
X54610000Y-90170000D01*
D26*
X107315000Y-63500000D02*
X110490000Y-60325000D01*
D24*
X130810000Y-88900000D02*
X127635000Y-85725000D01*
X98875191Y-62151497D02*
X94786055Y-62151497D01*
X90306182Y-63050499D02*
X100145191Y-63050499D01*
X76835000Y-86995000D02*
X77470000Y-86360000D01*
X79375000Y-59055000D02*
X76306996Y-62123004D01*
X95070237Y-66497997D02*
X95140242Y-66568002D01*
X76756497Y-63082133D02*
X78243630Y-61595000D01*
X108585000Y-82550000D02*
X119380000Y-71755000D01*
X60960000Y-78105000D02*
X60325000Y-78740000D01*
X74676497Y-66926433D02*
X74676497Y-66678945D01*
X73581497Y-71199193D02*
X73581497Y-68021433D01*
X78243630Y-61595000D02*
X79375000Y-61595000D01*
X121285690Y-50165000D02*
X110861688Y-50165000D01*
X119829501Y-51249501D02*
X120464501Y-51884501D01*
X73581497Y-68021433D02*
X74676497Y-66926433D01*
X74676497Y-66678945D02*
X76756497Y-64598945D01*
X68580000Y-76200000D02*
X68580690Y-76200000D01*
X129540000Y-74295000D02*
X129540000Y-66675690D01*
X89069009Y-62720000D02*
X90000991Y-62720000D01*
X68580690Y-76200000D02*
X73581497Y-71199193D01*
X76756497Y-64598945D02*
X76756497Y-63082133D01*
X81280000Y-66040000D02*
X95250000Y-66040000D01*
D25*
X49530000Y-106680000D02*
X48260000Y-106680000D01*
X53340000Y-99060000D02*
X53340000Y-102870000D01*
X57150000Y-90170000D02*
X57150000Y-95250000D01*
X78105000Y-88265000D02*
X59055000Y-88265000D01*
X81861138Y-67471998D02*
X78740000Y-70593136D01*
X78740000Y-87630000D02*
X78105000Y-88265000D01*
X100330000Y-71120000D02*
X96752006Y-67542006D01*
X94736797Y-67542003D02*
X94666793Y-67471999D01*
D24*
X76835000Y-85725000D02*
X76835000Y-70485000D01*
D25*
X78740000Y-70593136D02*
X78740000Y-87630000D01*
X94666793Y-67471999D02*
X81861138Y-67471998D01*
D24*
X76835000Y-70485000D02*
X81280000Y-66040000D01*
D25*
X59055000Y-88265000D02*
X57150000Y-90170000D01*
X97466972Y-71120000D02*
X97790000Y-71120000D01*
X94418472Y-68071500D02*
X97466972Y-71120000D01*
X83827269Y-68071498D02*
X94418472Y-68071500D01*
X96752006Y-67542006D02*
X94736797Y-67542003D01*
X83650264Y-68248503D02*
X83827269Y-68071498D01*
X81932455Y-68248503D02*
X83650264Y-68248503D01*
X79375000Y-70805958D02*
X81932455Y-68248503D01*
X52070000Y-106680000D02*
X54610000Y-104140000D01*
X78740000Y-88900000D02*
X79375000Y-88265000D01*
X58420000Y-90170000D02*
X59690000Y-88900000D01*
X53340000Y-102870000D02*
X49530000Y-106680000D01*
X54610000Y-104140000D02*
X54610000Y-99060000D01*
X58420000Y-95250000D02*
X58420000Y-90170000D01*
X54610000Y-99060000D02*
X58420000Y-95250000D01*
X59690000Y-88900000D02*
X78740000Y-88900000D01*
X57150000Y-95250000D02*
X53340000Y-99060000D01*
X79375000Y-88265000D02*
X79375000Y-70805958D01*
X55880000Y-115570000D02*
X57150000Y-116840000D01*
X55880000Y-99060000D02*
X55880000Y-115570000D01*
X59690000Y-95250000D02*
X55880000Y-99060000D01*
X59690000Y-90805000D02*
X59690000Y-95250000D01*
X60960000Y-89535000D02*
X59690000Y-90805000D01*
X79375000Y-89535000D02*
X60960000Y-89535000D01*
X80010000Y-71120000D02*
X80010000Y-88900000D01*
X82281997Y-68848003D02*
X80010000Y-71120000D01*
X84075590Y-68670999D02*
X83898585Y-68848004D01*
X92801001Y-68671001D02*
X84075590Y-68670999D01*
X95250000Y-71120000D02*
X92801001Y-68671001D01*
X80010000Y-88900000D02*
X79375000Y-89535000D01*
X83898585Y-68848004D02*
X82281997Y-68848003D01*
X91037503Y-69447503D02*
X92710000Y-71120000D01*
X86033093Y-69447504D02*
X91037503Y-69447503D01*
X85856089Y-69270500D02*
X86033093Y-69447504D01*
X84323912Y-69270499D02*
X85856089Y-69270500D01*
X84146907Y-69447504D02*
X84323912Y-69270499D01*
X80645000Y-71865913D02*
X83063409Y-69447504D01*
X80645000Y-90805000D02*
X80645000Y-71865913D01*
X69850000Y-91440000D02*
X80010000Y-91440000D01*
X86557005Y-70047005D02*
X87630000Y-71120000D01*
X67310000Y-93980000D02*
X69850000Y-91440000D01*
X85607767Y-69870000D02*
X85784772Y-70047005D01*
X84572233Y-69870000D02*
X85607767Y-69870000D01*
X84395228Y-70047005D02*
X84572233Y-69870000D01*
X83946729Y-70047005D02*
X84395228Y-70047005D01*
X81280000Y-72713734D02*
X83946729Y-70047005D01*
X80645000Y-92075000D02*
X81280000Y-91440000D01*
X71120000Y-93980000D02*
X73025000Y-92075000D01*
X83063409Y-69447504D02*
X84146907Y-69447504D01*
X81280000Y-91440000D02*
X81280000Y-72713734D01*
X80010000Y-91440000D02*
X80645000Y-90805000D01*
X85784772Y-70047005D02*
X86557005Y-70047005D01*
X73025000Y-92075000D02*
X80645000Y-92075000D01*
D24*
X74930000Y-83820000D02*
X74930000Y-68580000D01*
X74295000Y-84455000D02*
X74930000Y-83820000D01*
X62865000Y-80010000D02*
X67310000Y-84455000D01*
X67310000Y-84455000D02*
X74295000Y-84455000D01*
X54610000Y-80010000D02*
X62865000Y-80010000D01*
X39370000Y-83835000D02*
X50785000Y-83835000D01*
X50785000Y-83835000D02*
X54610000Y-80010000D01*
D26*
X121285000Y-62865000D02*
X123190000Y-62865000D01*
X123190000Y-62865000D02*
X123190000Y-60895112D01*
X123190000Y-71120000D02*
X123190000Y-62865000D01*
D24*
X48260000Y-86360000D02*
X76200000Y-86360000D01*
X76200000Y-86360000D02*
X76835000Y-85725000D01*
X130810000Y-57150000D02*
X130810000Y-71120000D01*
X126365000Y-52705000D02*
X130810000Y-57150000D01*
X111570000Y-77470000D02*
X116745000Y-72295000D01*
X85320000Y-77470000D02*
X111570000Y-77470000D01*
X116745000Y-72295000D02*
X116745000Y-55505892D01*
X116745000Y-55505892D02*
X113213109Y-51974001D01*
X71120000Y-78740000D02*
X71120000Y-79375000D01*
X67945000Y-78740000D02*
X71120000Y-78740000D01*
X67310000Y-78105000D02*
X67945000Y-78740000D01*
X67310000Y-74295000D02*
X67310000Y-78105000D01*
X66675000Y-73660000D02*
X67310000Y-74295000D01*
X62230000Y-73660000D02*
X66675000Y-73660000D01*
X61595000Y-74295000D02*
X62230000Y-73660000D01*
X61595000Y-78740000D02*
X61595000Y-74295000D01*
X60960000Y-79375000D02*
X61595000Y-78740000D01*
X52705000Y-79375000D02*
X60960000Y-79375000D01*
X48895000Y-83185000D02*
X52705000Y-79375000D01*
X42545000Y-83185000D02*
X48895000Y-83185000D01*
X41910000Y-82550000D02*
X42545000Y-83185000D01*
X41910000Y-70485000D02*
X41910000Y-82550000D01*
X43180000Y-69215000D02*
X41910000Y-70485000D01*
X44450000Y-69215000D02*
X43180000Y-69215000D01*
X45720000Y-70485000D02*
X44450000Y-69215000D01*
X50050000Y-70485000D02*
X45720000Y-70485000D01*
X55765000Y-76200000D02*
X50050000Y-70485000D01*
X38085000Y-83835000D02*
X39370000Y-83835000D01*
X37465000Y-84455000D02*
X38085000Y-83835000D01*
X37465000Y-86995000D02*
X37465000Y-84455000D01*
X38100000Y-87630000D02*
X37465000Y-86995000D01*
X40640000Y-87630000D02*
X38100000Y-87630000D01*
X41275000Y-88265000D02*
X40640000Y-87630000D01*
X41275000Y-94615000D02*
X41275000Y-88265000D01*
X39370000Y-96520000D02*
X41275000Y-94615000D01*
X44450000Y-90252919D02*
X44450000Y-96520000D01*
X39370000Y-86375000D02*
X40572081Y-86375000D01*
X40572081Y-86375000D02*
X44450000Y-90252919D01*
D25*
X130175000Y-47625000D02*
X132080000Y-49530000D01*
X127000000Y-47625000D02*
X130175000Y-47625000D01*
X88132920Y-44450000D02*
X97790000Y-44450000D01*
X110490000Y-48895000D02*
X125730000Y-48895000D01*
X82633820Y-49949100D02*
X88132920Y-44450000D01*
X125730000Y-48895000D02*
X127000000Y-47625000D01*
X108821910Y-51198780D02*
X93875860Y-51198780D01*
X110490690Y-49530000D02*
X108821910Y-51198780D01*
X128270000Y-49530000D02*
X110490690Y-49530000D01*
X93875860Y-51198780D02*
X92626180Y-49949100D01*
D26*
X127064888Y-60895112D02*
X128270000Y-59690000D01*
X123190000Y-60895112D02*
X127064888Y-60895112D01*
D24*
X50685000Y-76200000D02*
X50685000Y-78625000D01*
X66040000Y-80645000D02*
X66040000Y-76200000D01*
X68580000Y-83185000D02*
X66040000Y-80645000D01*
X71755000Y-83185000D02*
X68580000Y-83185000D01*
X71120000Y-80010000D02*
X71120000Y-76200000D01*
D25*
X72306180Y-53256180D02*
X72306180Y-49949100D01*
X68580000Y-59690000D02*
X68580000Y-57150000D01*
X65405000Y-62865000D02*
X68580000Y-59690000D01*
X64135000Y-62865000D02*
X65405000Y-62865000D01*
X68580000Y-57150000D02*
X72390000Y-53340000D01*
X72390000Y-53340000D02*
X72306180Y-53256180D01*
X66040000Y-59055000D02*
X66675000Y-58420000D01*
X64135000Y-60325000D02*
X65405000Y-60325000D01*
X62230000Y-64135000D02*
X62230000Y-62230000D01*
X66040000Y-67945000D02*
X62230000Y-64135000D01*
X62230000Y-62230000D02*
X64135000Y-60325000D01*
X65405000Y-60325000D02*
X66040000Y-59690000D01*
X66040000Y-68580000D02*
X66040000Y-67945000D01*
X66040000Y-59690000D02*
X66040000Y-59055000D01*
X68580000Y-67310000D02*
X68580000Y-68580000D01*
X74295000Y-62865000D02*
X71755000Y-65405000D01*
X71755000Y-65405000D02*
X70485000Y-65405000D01*
X70485000Y-65405000D02*
X68580000Y-67310000D01*
X74295000Y-58420000D02*
X74295000Y-62865000D01*
X66675000Y-54310280D02*
X66675000Y-58420000D01*
X62313820Y-49949100D02*
X66675000Y-54310280D01*
X63675260Y-43815000D02*
X67310000Y-47449740D01*
X58420000Y-43815000D02*
X63675260Y-43815000D01*
X57150000Y-45085000D02*
X58420000Y-43815000D01*
X57150000Y-50165000D02*
X57150000Y-45085000D01*
X61595000Y-54610000D02*
X57150000Y-50165000D01*
X61595000Y-57130000D02*
X61595000Y-54610000D01*
X63500000Y-59035000D02*
X61595000Y-57130000D01*
D26*
X59690000Y-81280000D02*
X61595000Y-83185000D01*
X57785000Y-81280000D02*
X59690000Y-81280000D01*
D24*
X58420000Y-77470000D02*
X58420000Y-77450000D01*
X58420000Y-77450000D02*
X59055000Y-76815000D01*
X55880000Y-76200000D02*
X57150000Y-77470000D01*
X57150000Y-77470000D02*
X58420000Y-77470000D01*
X55765000Y-76200000D02*
X55880000Y-76200000D01*
X48145000Y-71120000D02*
X43815000Y-71120000D01*
X53225000Y-76200000D02*
X48145000Y-71120000D01*
D25*
X50685000Y-67830000D02*
X48260000Y-65405000D01*
X46990000Y-65405000D02*
X45085000Y-63500000D01*
X50685000Y-68580000D02*
X50685000Y-67830000D01*
X48260000Y-65405000D02*
X46990000Y-65405000D01*
X45085000Y-63500000D02*
X45085000Y-53340000D01*
X45085000Y-53340000D02*
X45234860Y-53190140D01*
X41993820Y-49949100D02*
X45234860Y-53190140D01*
X45234860Y-53190140D02*
X47289720Y-55245000D01*
X53225000Y-66790000D02*
X53225000Y-68580000D01*
X53340000Y-66675000D02*
X53225000Y-66790000D01*
X48895000Y-64770000D02*
X51435000Y-64770000D01*
X46990000Y-62865000D02*
X48895000Y-64770000D01*
X51435000Y-64770000D02*
X53340000Y-66675000D01*
X46990000Y-58420000D02*
X46990000Y-62865000D01*
X59690000Y-60325000D02*
X57150000Y-62865000D01*
X59690000Y-55245000D02*
X59690000Y-60325000D01*
X54394100Y-49949100D02*
X59690000Y-55245000D01*
X51986180Y-49949100D02*
X54394100Y-49949100D01*
X55225000Y-53975000D02*
X57785000Y-56535000D01*
X46990000Y-50165000D02*
X50800000Y-53975000D01*
X46990000Y-47449740D02*
X46990000Y-50165000D01*
X50800000Y-53975000D02*
X55225000Y-53975000D01*
X54610000Y-56515000D02*
X54610000Y-58420000D01*
X47289720Y-55245000D02*
X53340000Y-55245000D01*
X53340000Y-55245000D02*
X54610000Y-56515000D01*
X81915000Y-73025000D02*
X83820000Y-71120000D01*
X81915000Y-92075000D02*
X81915000Y-73025000D01*
X81280000Y-92710000D02*
X81915000Y-92075000D01*
X77470000Y-92710000D02*
X81280000Y-92710000D01*
D24*
X128270000Y-77470000D02*
X132080000Y-73660000D01*
X128270000Y-83820000D02*
X128270000Y-77470000D01*
X133350000Y-88900000D02*
X128270000Y-83820000D01*
X132080000Y-73660000D02*
X132080000Y-59690000D01*
X110490000Y-71120000D02*
X110490000Y-64770000D01*
X110490000Y-64770000D02*
X110490000Y-63500000D01*
X113030000Y-63500000D02*
X110490000Y-63500000D01*
X115530000Y-62270000D02*
X115530000Y-63500000D01*
X38085000Y-88915000D02*
X39370000Y-88915000D01*
X36830000Y-90170000D02*
X38085000Y-88915000D01*
X36830000Y-100330000D02*
X36830000Y-90170000D01*
X38100000Y-101600000D02*
X36830000Y-100330000D01*
X39370000Y-101600000D02*
X38100000Y-101600000D01*
X48260000Y-97790000D02*
X48260000Y-96520000D01*
X46990000Y-99060000D02*
X48260000Y-97790000D01*
X39370000Y-99060000D02*
X46990000Y-99060000D01*
X113030000Y-66040000D02*
X113030000Y-71120000D01*
X115530000Y-66040000D02*
X115530000Y-71080000D01*
X115530000Y-71080000D02*
X115570000Y-71120000D01*
X115530000Y-63500000D02*
X115530000Y-66040000D01*
D25*
X83820000Y-71120000D02*
X85090000Y-71120000D01*
X73660000Y-96520000D02*
X77470000Y-92710000D01*
X73660000Y-105410000D02*
X73660000Y-96520000D01*
X67310000Y-109220000D02*
X69850000Y-106680000D01*
X69850000Y-106680000D02*
X72390000Y-106680000D01*
X72390000Y-106680000D02*
X73660000Y-105410000D01*
X99060000Y-113030000D02*
X96520000Y-115570000D01*
X97790000Y-102870000D02*
X99060000Y-104140000D01*
X97790000Y-88900000D02*
X97790000Y-102870000D01*
X99060000Y-104140000D02*
X99060000Y-113030000D01*
X64770000Y-115570000D02*
X62230000Y-113030000D01*
X64770000Y-116840000D02*
X64770000Y-115570000D01*
X67310000Y-119380000D02*
X64770000Y-116840000D01*
X125730000Y-118110000D02*
X125730000Y-113030000D01*
X125730000Y-113030000D02*
X129540000Y-109220000D01*
X124460000Y-119380000D02*
X125730000Y-118110000D01*
X123190000Y-119380000D02*
X124460000Y-119380000D01*
X46990000Y-116840000D02*
X48260000Y-116840000D01*
X45720000Y-115570000D02*
X46990000Y-116840000D01*
X45720000Y-111760000D02*
X45720000Y-115570000D01*
X43180000Y-109220000D02*
X45720000Y-111760000D01*
X49530000Y-119380000D02*
X52070000Y-116840000D01*
X43180000Y-119380000D02*
X49530000Y-119380000D01*
D26*
X39930000Y-130520000D02*
X46430000Y-130520000D01*
X79300000Y-130520000D02*
X85800000Y-130520000D01*
X61520000Y-130520000D02*
X68020000Y-130520000D01*
X112470000Y-130520000D02*
X105970000Y-130520000D01*
X132790000Y-130520000D02*
X126290000Y-130520000D01*
D24*
X107950000Y-102870000D02*
X107950000Y-88900000D01*
X104140000Y-106680000D02*
X107950000Y-102870000D01*
X104140000Y-124190000D02*
X104140000Y-106680000D01*
X105970000Y-126020000D02*
X104140000Y-124190000D01*
X125730000Y-96520000D02*
X125730000Y-88900000D01*
X132790000Y-103580000D02*
X125730000Y-96520000D01*
X132790000Y-126020000D02*
X132790000Y-103580000D01*
D25*
X77470000Y-93980000D02*
X82550000Y-93980000D01*
X74930000Y-96520000D02*
X77470000Y-93980000D01*
X82550000Y-93980000D02*
X85090000Y-91440000D01*
X85090000Y-91440000D02*
X85090000Y-88900000D01*
X74930000Y-105410000D02*
X74930000Y-96520000D01*
X71120000Y-109220000D02*
X74930000Y-105410000D01*
X57150000Y-99060000D02*
X57150000Y-106680000D01*
X62230000Y-93980000D02*
X57150000Y-99060000D01*
X66040000Y-104140000D02*
X67310000Y-104140000D01*
X62230000Y-100330000D02*
X66040000Y-104140000D01*
X68580000Y-106680000D02*
X71120000Y-104140000D01*
X62230000Y-106680000D02*
X68580000Y-106680000D01*
X68580000Y-121920000D02*
X71120000Y-119380000D01*
X64770000Y-121920000D02*
X68580000Y-121920000D01*
X62230000Y-119380000D02*
X64770000Y-121920000D01*
D24*
X68020000Y-126020000D02*
X61520000Y-126020000D01*
X87630000Y-93980000D02*
X87630000Y-88900000D01*
X86360000Y-95250000D02*
X87630000Y-93980000D01*
X77470000Y-95250000D02*
X86360000Y-95250000D01*
X76200000Y-96520000D02*
X77470000Y-95250000D01*
X76200000Y-121920000D02*
X76200000Y-96520000D01*
X72100000Y-126020000D02*
X76200000Y-121920000D01*
X68020000Y-126020000D02*
X72100000Y-126020000D01*
X101600000Y-119380000D02*
X101600000Y-106680000D01*
X101600000Y-106680000D02*
X105410000Y-102870000D01*
X99060000Y-121920000D02*
X101600000Y-119380000D01*
X105410000Y-102870000D02*
X105410000Y-88900000D01*
X87630000Y-121920000D02*
X99060000Y-121920000D01*
X85800000Y-126020000D02*
X85800000Y-123750000D01*
X85800000Y-123750000D02*
X87630000Y-121920000D01*
X85800000Y-126020000D02*
X79300000Y-126020000D01*
D25*
X85090000Y-107950000D02*
X86360000Y-107950000D01*
X83820000Y-106680000D02*
X85090000Y-107950000D01*
X83820000Y-102870000D02*
X83820000Y-106680000D01*
X80010000Y-100330000D02*
X81280000Y-100330000D01*
X81280000Y-100330000D02*
X83820000Y-102870000D01*
X80010000Y-106680000D02*
X85090000Y-111760000D01*
X85090000Y-111760000D02*
X86360000Y-111760000D01*
X83820000Y-113030000D02*
X86360000Y-115570000D01*
X80010000Y-113030000D02*
X83820000Y-113030000D01*
X80010000Y-119380000D02*
X86360000Y-119380000D01*
X100330000Y-115570000D02*
X100330000Y-88900000D01*
X96520000Y-119380000D02*
X100330000Y-115570000D01*
X95250000Y-102870000D02*
X95250000Y-88900000D01*
X97720000Y-105340000D02*
X95250000Y-102870000D01*
X97720000Y-110560000D02*
X97720000Y-105340000D01*
X96520000Y-111760000D02*
X97720000Y-110560000D01*
X96520000Y-106680000D02*
X92710000Y-102870000D01*
X92710000Y-102870000D02*
X92710000Y-88900000D01*
X96520000Y-107950000D02*
X96520000Y-106680000D01*
X109220000Y-119380000D02*
X115570000Y-119380000D01*
X110490000Y-104140000D02*
X110490000Y-88900000D01*
X115570000Y-109220000D02*
X110490000Y-104140000D01*
X119380000Y-102870000D02*
X113030000Y-96520000D01*
X119380000Y-109220000D02*
X119380000Y-102870000D01*
X113030000Y-96520000D02*
X113030000Y-88900000D01*
X123190000Y-109220000D02*
X123190000Y-88900000D01*
D24*
X126290000Y-126020000D02*
X132790000Y-126020000D01*
X112470000Y-126020000D02*
X105970000Y-126020000D01*
M02*
